ply
format ascii 1.0
element vertex 15
property float x
property float y
property float z
property uchar red
property uchar green
property uchar blue
element face 5
property list uchar uint vertex_indices
end_header
0.492188 -0.382812 0.023438 0 0 0
0.367188 0.382812 -0.039062 0 0 0
0.085938 0.117188 -0.835938 0 0 0
0.539062 -0.492188 -0.742188 0 0 0
0.570312 -0.960938 -0.273438 0 0 0
0.148438 -0.304688 -0.492188 0 0 0
0.804688 -0.492188 -0.492188 0 0 0
0.429688 -0.382812 -0.585938 0 0 0
0.882812 0.132812 1.007812 0 0 0
0.320312 0.726562 -0.460938 0 0 0
0.679688 0.882812 0.742188 0 0 0
0.914062 -0.523438 -0.695312 0 0 0
-0.007812 0.835938 -0.460938 0 0 0
0.273438 -0.148438 0.539062 0 0 0
-0.789062 -0.476562 -0.320312 0 0 0
3 0 1 2
3 3 4 5
3 6 7 8
3 9 10 11
3 12 13 14
