ply
format ascii 1.0
element vertex 15
property float x
property float y
property float z
property uchar red
property uchar green
property uchar blue
element face 5
property list uchar uint vertex_indices
end_header
0.851562 -0.632812 -0.570312 0 0 0
0.429688 0.398438 -0.382812 0 0 0
0.226562 0.398438 1.039062 0 0 0
0.429688 -0.601562 -0.789062 0 0 0
-0.023438 -0.601562 -0.554688 0 0 0
-0.664062 0.117188 0.742188 0 0 0
0.617188 0.757812 -0.335938 0 0 0
0.367188 0.726562 0.023438 0 0 0
0.929688 -0.226562 0.742188 0 0 0
0.164062 -0.507812 0.476562 0 0 0
0.914062 0.617188 0.742188 0 0 0
0.914062 0.757812 -0.835938 0 0 0
-0.179688 0.648438 -0.820312 0 0 0
-0.742188 -0.710938 0.257812 0 0 0
-0.164062 -0.523438 0.914062 0 0 0
3 0 1 2
3 3 4 5
3 6 7 8
3 9 10 11
3 12 13 14
