ply
format ascii 1.0
element vertex 15
property float x
property float y
property float z
property uchar red
property uchar green
property uchar blue
element face 5
property list uchar uint vertex_indices
end_header
-0.273438 -0.742188 0.742188 0 0 0
-0.664062 -0.898438 -0.914062 0 0 0
0.820312 0.757812 -0.148438 0 0 0
0.570312 0.726562 -0.039062 0 0 0
0.320312 -0.039062 -0.460938 0 0 0
-0.414062 -0.164062 -0.460938 0 0 0
0.960938 -0.742188 -0.335938 0 0 0
-0.414062 0.742188 0.507812 0 0 0
-0.976562 -0.507812 0.039062 0 0 0
0.523438 -0.507812 0.710938 0 0 0
-0.867188 0.132812 0.976562 0 0 0
0.617188 0.398438 -0.101562 0 0 0
0.929688 -0.164062 -0.992188 0 0 0
0.335938 0.617188 0.742188 0 0 0
0.835938 -0.960938 0.742188 0 0 0
3 0 1 2
3 3 4 5
3 6 7 8
3 9 10 11
3 12 13 14
