ply
format ascii 1.0
element vertex 9
property float x
property float y
property float z
property uchar red
property uchar green
property uchar blue
element face 3
property list uchar uint vertex_indices
end_header
0.429688 0.679688 -0.257812 0 0 0
0.226562 0.679688 -0.992188 0 0 0
0.929688 -0.382812 0.554688 0 0 0
-0.601562 -0.382812 0.742188 0 0 0
-0.085938 0.757812 -0.492188 0 0 0
-0.742188 0.132812 0.679688 0 0 0
-0.039062 0.132812 0.742188 0 0 0
0.617188 -0.507812 -0.304688 0 0 0
0.570312 -0.601562 0.914062 0 0 0
3 0 1 2
3 3 4 5
3 6 7 8
