ply
format ascii 1.0
element vertex 15
property float x
property float y
property float z
property uchar red
property uchar green
property uchar blue
element face 5
property list uchar uint vertex_indices
end_header
0.929688 -0.039062 0.945312 0 0 0
-0.460938 -0.492188 0.851562 0 0 0
-0.460938 0.960938 0.351562 0 0 0
-0.960938 0.101562 -0.492188 0 0 0
0.367188 -0.507812 -0.804688 0 0 0
0.429688 -0.632812 0.742188 0 0 0
-0.070312 0.273438 -0.804688 0 0 0
-0.617188 0.304688 -0.195312 0 0 0
0.914062 0.179688 1.007812 0 0 0
0.789062 -0.679688 0.742188 0 0 0
-0.117188 -0.429688 0.742188 0 0 0
-0.851562 -0.382812 -0.335938 0 0 0
0.851562 -0.273438 0.992188 0 0 0
0.570312 -0.882812 0.914062 0 0 0
0.835938 -0.695312 0.820312 0 0 0
3 0 1 2
3 3 4 5
3 6 7 8
3 9 10 11
3 12 13 14
