ply
format ascii 1.0
element vertex 15
property float x
property float y
property float z
property uchar red
property uchar green
property uchar blue
element face 5
property list uchar uint vertex_indices
end_header
-0.132812 0.898438 -0.164062 0 0 0
-0.960938 -0.507812 0.960938 0 0 0
-0.335938 -0.632812 -0.570312 0 0 0
-0.414062 0.367188 0.148438 0 0 0
0.210938 -0.476562 -0.554688 0 0 0
-0.007812 -0.476562 -0.992188 0 0 0
0.523438 -0.382812 -0.820312 0 0 0
0.304688 -0.804688 -0.039062 0 0 0
-0.117188 -0.632812 -0.398438 0 0 0
0.914062 -0.507812 0.867188 0 0 0
-0.039062 -0.367188 0.914062 0 0 0
0.226562 0.851562 -0.023438 0 0 0
0.570312 0.914062 1.007812 0 0 0
0.898438 -0.960938 0.382812 0 0 0
-0.476562 -0.335938 -0.382812 0 0 0
3 0 1 2
3 3 4 5
3 6 7 8
3 9 10 11
3 12 13 14
