ply
format ascii 1.0
element vertex 63
property float x
property float y
property float z
property uchar red
property uchar green
property uchar blue
element face 21
property list uchar uint vertex_indices
end_header
0.382812 0.898438 -0.695312 0 0 0
0.351562 0.398438 -0.382812 0 0 0
0.351562 0.648438 -0.570312 0 0 0
-0.648438 -0.945312 0.195312 0 0 0
-0.757812 -0.523438 0.914062 0 0 0
-0.070312 0.179688 -0.289062 0 0 0
0.851562 -0.492188 -0.617188 0 0 0
-0.554688 0.960938 -0.101562 0 0 0
-0.414062 0.476562 -0.304688 0 0 0
0.335938 -0.226562 0.382812 0 0 0
0.882812 -0.164062 -0.460938 0 0 0
0.882812 0.648438 -0.398438 0 0 0
0.367188 0.367188 -0.460938 0 0 0
0.070312 0.726562 0.742188 0 0 0
0.523438 0.085938 0.398438 0 0 0
-0.773438 0.101562 -0.570312 0 0 0
-0.070312 -0.335938 -0.914062 0 0 0
-0.210938 0.023438 -0.460938 0 0 0
-0.601562 0.726562 -0.585938 0 0 0
-0.789062 0.054688 0.476562 0 0 0
-0.164062 -0.164062 0.992188 0 0 0
-0.867188 0.257812 -0.273438 0 0 0
-0.164062 -0.429688 -0.570312 0 0 0
-0.789062 -0.226562 0.382812 0 0 0
-0.210938 -0.507812 0.445312 0 0 0
0.726562 0.742188 0.976562 0 0 0
-0.726562 -0.382812 -0.039062 0 0 0
0.914062 0.648438 -0.085938 0 0 0
0.320312 0.898438 0.367188 0 0 0
-0.851562 0.335938 0.851562 0 0 0
0.445312 -0.070312 0.914062 0 0 0
0.882812 0.429688 -0.773438 0 0 0
0.914062 0.382812 -0.835938 0 0 0
1.039062 0.070312 0.023438 0 0 0
0.351562 -0.148438 -0.460938 0 0 0
0.429688 0.070312 0.070312 0 0 0
-0.070312 -0.570312 -0.335938 0 0 0
-0.960938 0.257812 -0.914062 0 0 0
0.304688 0.210938 -0.117188 0 0 0
0.960938 -0.679688 0.476562 0 0 0
0.820312 -0.804688 -0.117188 0 0 0
-0.804688 0.851562 -0.007812 0 0 0
-0.617188 0.414062 -0.585938 0 0 0
0.070312 0.367188 0.132812 0 0 0
0.367188 0.351562 -0.039062 0 0 0
0.210938 0.132812 -0.382812 0 0 0
0.523438 -0.898438 0.945312 0 0 0
-0.976562 0.960938 -0.335938 0 0 0
-0.070312 0.539062 -0.414062 0 0 0
0.898438 -0.804688 -0.101562 0 0 0
0.726562 0.960938 0.523438 0 0 0
0.867188 0.132812 -0.179688 0 0 0
0.804688 0.117188 0.742188 0 0 0
-0.601562 0.554688 -0.492188 0 0 0
-0.960938 0.117188 -0.460938 0 0 0
0.914062 1.039062 -0.085938 0 0 0
0.304688 -0.523438 -0.570312 0 0 0
0.492188 -0.960938 0.351562 0 0 0
0.679688 -0.882812 0.976562 0 0 0
-0.164062 -0.335938 0.023438 0 0 0
-0.617188 -0.710938 -0.164062 0 0 0
-0.742188 -0.507812 0.710938 0 0 0
0.726562 0.960938 -0.757812 0 0 0
3 0 1 2
3 3 4 5
3 6 7 8
3 9 10 11
3 12 13 14
3 15 16 17
3 18 19 20
3 21 22 23
3 24 25 26
3 27 28 29
3 30 31 32
3 33 34 35
3 36 37 38
3 39 40 41
3 42 43 44
3 45 46 47
3 48 49 50
3 51 52 53
3 54 55 56
3 57 58 59
3 60 61 62
