ply
format ascii 1.0
element vertex 24
property float x
property float y
property float z
property uchar red
property uchar green
property uchar blue
element face 8
property list uchar uint vertex_indices
end_header
0.851562 0.867188 -0.414062 0 0 0
-0.429688 0.382812 0.914062 0 0 0
-0.148438 -0.523438 -0.460938 0 0 0
0.867188 0.117188 -0.460938 0 0 0
-0.007812 -0.929688 0.148438 0 0 0
0.914062 -0.632812 0.132812 0 0 0
-0.398438 0.335938 -0.398438 0 0 0
-0.335938 -0.492188 0.960938 0 0 0
0.273438 0.507812 0.710938 0 0 0
-0.179688 0.960938 -0.492188 0 0 0
0.773438 0.414062 -0.039062 0 0 0
0.835938 -0.554688 -0.335938 0 0 0
0.882812 -0.148438 0.523438 0 0 0
0.007812 -0.492188 0.023438 0 0 0
0.882812 0.210938 -0.398438 0 0 0
0.523438 0.648438 -0.335938 0 0 0
0.929688 0.757812 -0.335938 0 0 0
0.820312 0.742188 0.148438 0 0 0
0.210938 0.960938 -0.460938 0 0 0
0.929688 0.273438 0.507812 0 0 0
0.039062 0.257812 0.742188 0 0 0
0.742188 -0.070312 -0.992188 0 0 0
-0.398438 -0.945312 0.742188 0 0 0
-0.554688 -0.710938 0.398438 0 0 0
3 0 1 2
3 3 4 5
3 6 7 8
3 9 10 11
3 12 13 14
3 15 16 17
3 18 19 20
3 21 22 23
