ply
format ascii 1.0
element vertex 9
property float x
property float y
property float z
property uchar red
property uchar green
property uchar blue
element face 3
property list uchar uint vertex_indices
end_header
-0.976562 -0.460938 -0.914062 0 0 0
-0.007812 0.460938 -0.460938 0 0 0
-0.023438 0.414062 0.039062 0 0 0
0.492188 0.851562 -0.210938 0 0 0
-0.789062 -0.945312 -0.460938 0 0 0
0.320312 0.757812 -0.210938 0 0 0
0.226562 -0.507812 -0.789062 0 0 0
-0.789062 0.054688 -0.789062 0 0 0
-0.445312 -0.601562 -0.273438 0 0 0
3 0 1 2
3 3 4 5
3 6 7 8
