ply
format ascii 1.0
element vertex 15
property float x
property float y
property float z
property uchar red
property uchar green
property uchar blue
element face 5
property list uchar uint vertex_indices
end_header
-0.132812 0.101562 -0.398438 0 0 0
-0.039062 0.882812 0.039062 0 0 0
-0.789062 0.898438 1.007812 0 0 0
0.914062 0.492188 0.132812 0 0 0
0.617188 -0.742188 0.226562 0 0 0
0.320312 0.679688 0.382812 0 0 0
0.304688 0.398438 -0.398438 0 0 0
-0.789062 0.273438 0.742188 0 0 0
0.835938 0.726562 -0.054688 0 0 0
-0.117188 0.273438 0.914062 0 0 0
0.804688 -0.789062 0.382812 0 0 0
-0.617188 0.382812 -0.992188 0 0 0
0.039062 -0.335938 0.382812 0 0 0
-0.164062 -0.679688 -0.460938 0 0 0
0.882812 -0.132812 0.476562 0 0 0
3 0 1 2
3 3 4 5
3 6 7 8
3 9 10 11
3 12 13 14
