ply
format ascii 1.0
element vertex 42
property float x
property float y
property float z
property uchar red
property uchar green
property uchar blue
element face 14
property list uchar uint vertex_indices
end_header
0.523438 -0.460938 -0.585938 0 0 0
0.882812 0.414062 -0.992188 0 0 0
0.867188 0.414062 -0.507812 0 0 0
-0.210938 0.023438 -0.007812 0 0 0
-0.007812 0.757812 0.523438 0 0 0
-0.476562 -0.070312 0.382812 0 0 0
0.929688 0.757812 0.179688 0 0 0
-0.757812 0.289062 0.476562 0 0 0
-0.976562 0.210938 0.742188 0 0 0
-0.335938 -0.070312 0.039062 0 0 0
0.492188 -0.273438 0.382812 0 0 0
0.367188 0.554688 0.945312 0 0 0
-0.710938 0.335938 0.382812 0 0 0
0.226562 0.554688 -0.398438 0 0 0
-0.210938 0.367188 0.742188 0 0 0
0.726562 -0.882812 -0.117188 0 0 0
-0.226562 -0.507812 -0.085938 0 0 0
0.117188 -0.429688 0.023438 0 0 0
-0.789062 0.382812 0.023438 0 0 0
-0.648438 -0.382812 0.914062 0 0 0
0.523438 -0.648438 -0.757812 0 0 0
-0.132812 -0.820312 -0.273438 0 0 0
0.023438 0.210938 0.679688 0 0 0
-0.945312 -0.882812 -0.648438 0 0 0
0.367188 0.585938 0.382812 0 0 0
0.492188 0.210938 0.382812 0 0 0
-0.007812 0.023438 0.023438 0 0 0
-0.710938 0.882812 0.820312 0 0 0
0.820312 0.210938 -0.304688 0 0 0
0.226562 -0.632812 -0.398438 0 0 0
-0.070312 -0.429688 -0.460938 0 0 0
0.039062 0.132812 0.070312 0 0 0
-0.132812 -0.632812 -0.148438 0 0 0
0.773438 0.070312 -0.789062 0 0 0
0.210938 0.398438 0.023438 0 0 0
0.617188 0.539062 0.148438 0 0 0
-0.398438 0.289062 -0.617188 0 0 0
0.304688 -0.945312 0.179688 0 0 0
-0.617188 -0.632812 -0.914062 0 0 0
-0.210938 -0.335938 -0.554688 0 0 0
0.054688 -0.742188 0.492188 0 0 0
-0.476562 -0.429688 -0.914062 0 0 0
3 0 1 2
3 3 4 5
3 6 7 8
3 9 10 11
3 12 13 14
3 15 16 17
3 18 19 20
3 21 22 23
3 24 25 26
3 27 28 29
3 30 31 32
3 33 34 35
3 36 37 38
3 39 40 41
