ply
format ascii 1.0
element vertex 24
property float x
property float y
property float z
property uchar red
property uchar green
property uchar blue
element face 8
property list uchar uint vertex_indices
end_header
-0.617188 0.335938 -0.460938 0 0 0
-0.742188 0.335938 0.523438 0 0 0
0.617188 0.242188 -0.804688 0 0 0
0.492188 -0.507812 0.742188 0 0 0
-0.351562 -0.742188 -0.976562 0 0 0
0.820312 -0.335938 0.742188 0 0 0
-0.492188 -0.492188 -0.023438 0 0 0
-0.851562 -0.851562 0.914062 0 0 0
0.882812 0.335938 0.742188 0 0 0
0.914062 0.273438 -0.492188 0 0 0
-0.835938 0.757812 -0.210938 0 0 0
0.492188 0.289062 -0.789062 0 0 0
0.367188 0.585938 0.742188 0 0 0
-0.867188 -0.382812 0.382812 0 0 0
-0.726562 -0.742188 -0.023438 0 0 0
-0.085938 0.070312 -0.382812 0 0 0
0.351562 -0.789062 0.367188 0 0 0
-0.789062 -0.710938 -0.820312 0 0 0
0.914062 0.960938 -0.398438 0 0 0
0.023438 -0.382812 -0.617188 0 0 0
0.914062 0.898438 -0.570312 0 0 0
-0.570312 0.414062 -0.398438 0 0 0
0.851562 -0.679688 0.867188 0 0 0
-0.007812 -0.226562 -0.460938 0 0 0
3 0 1 2
3 3 4 5
3 6 7 8
3 9 10 11
3 12 13 14
3 15 16 17
3 18 19 20
3 21 22 23
