ply
format ascii 1.0
element vertex 18
property float x
property float y
property float z
property uchar red
property uchar green
property uchar blue
element face 6
property list uchar uint vertex_indices
end_header
-0.132812 -0.070312 -0.976562 0 0 0
-0.007812 -0.601562 -0.117188 0 0 0
-0.351562 0.273438 0.976562 0 0 0
-0.976562 -0.695312 -0.164062 0 0 0
0.210938 -0.507812 -0.976562 0 0 0
0.523438 -0.039062 0.570312 0 0 0
0.023438 0.742188 -0.304688 0 0 0
-0.398438 -0.476562 -0.007812 0 0 0
0.617188 0.132812 0.445312 0 0 0
-0.945312 0.070312 0.945312 0 0 0
0.039062 -0.742188 0.914062 0 0 0
0.492188 0.648438 -0.585938 0 0 0
-0.726562 -0.429688 -0.101562 0 0 0
0.820312 0.367188 0.976562 0 0 0
0.804688 -0.148438 -0.882812 0 0 0
0.773438 0.757812 0.023438 0 0 0
0.023438 0.539062 -0.148438 0 0 0
0.820312 -0.335938 1.007812 0 0 0
3 0 1 2
3 3 4 5
3 6 7 8
3 9 10 11
3 12 13 14
3 15 16 17
