ply
format ascii 1.0
element vertex 15
property float x
property float y
property float z
property uchar red
property uchar green
property uchar blue
element face 5
property list uchar uint vertex_indices
end_header
0.429688 0.570312 -0.039062 0 0 0
-0.851562 -0.429688 0.914062 0 0 0
0.492188 0.179688 0.742188 0 0 0
-0.070312 0.007812 -0.335938 0 0 0
-0.648438 0.960938 -0.335938 0 0 0
-0.773438 0.789062 -0.273438 0 0 0
0.570312 0.960938 1.039062 0 0 0
0.914062 0.757812 0.820312 0 0 0
0.835938 0.679688 0.257812 0 0 0
0.210938 0.742188 0.679688 0 0 0
-0.789062 -0.804688 -0.039062 0 0 0
-0.210938 -0.226562 -0.398438 0 0 0
-0.335938 0.007812 -0.289062 0 0 0
-0.570312 0.007812 -0.570312 0 0 0
0.382812 0.554688 -0.570312 0 0 0
3 0 1 2
3 3 4 5
3 6 7 8
3 9 10 11
3 12 13 14
