ply
format ascii 1.0
element vertex 12
property float x
property float y
property float z
property uchar red
property uchar green
property uchar blue
element face 4
property list uchar uint vertex_indices
end_header
0.851562 0.101562 0.992188 0 0 0
0.523438 -0.070312 -0.414062 0 0 0
0.789062 -0.148438 0.554688 0 0 0
0.773438 0.226562 0.742188 0 0 0
0.429688 0.023438 0.523438 0 0 0
-0.070312 0.757812 0.679688 0 0 0
0.148438 0.867188 -0.710938 0 0 0
-0.929688 0.367188 -0.992188 0 0 0
-0.179688 -0.945312 0.601562 0 0 0
0.367188 0.835938 0.914062 0 0 0
0.429688 0.960938 -0.398438 0 0 0
-0.382812 -0.804688 -0.335938 0 0 0
3 0 1 2
3 3 4 5
3 6 7 8
3 9 10 11
