ply
format ascii 1.0
element vertex 18
property float x
property float y
property float z
property uchar red
property uchar green
property uchar blue
element face 6
property list uchar uint vertex_indices
end_header
0.492188 -0.945312 -0.398438 0 0 0
0.929688 0.367188 -0.039062 0 0 0
-0.007812 -0.742188 0.023438 0 0 0
-0.460938 0.726562 -0.210938 0 0 0
-0.648438 -0.570312 -0.257812 0 0 0
-0.664062 -0.070312 0.148438 0 0 0
-0.398438 0.289062 -0.460938 0 0 0
0.210938 -0.429688 -0.492188 0 0 0
-0.039062 -0.601562 -0.414062 0 0 0
-0.023438 0.335938 -0.273438 0 0 0
0.492188 -0.492188 0.554688 0 0 0
-0.007812 -0.476562 -0.617188 0 0 0
0.523438 0.132812 1.007812 0 0 0
0.367188 0.273438 0.742188 0 0 0
0.648438 -0.960938 -0.992188 0 0 0
0.492188 0.117188 -0.914062 0 0 0
0.882812 0.335938 0.085938 0 0 0
-0.960938 0.132812 -0.335938 0 0 0
3 0 1 2
3 3 4 5
3 6 7 8
3 9 10 11
3 12 13 14
3 15 16 17
