ply
format ascii 1.0
element vertex 231
property float x
property float y
property float z
property uchar red
property uchar green
property uchar blue
element face 77
property list uchar uint vertex_indices
end_header
0.617188 -0.507812 -0.585938 0 0 0
-0.867188 0.335938 -0.570312 0 0 0
-0.023438 -0.898438 -0.804688 0 0 0
-0.414062 0.835938 -0.117188 0 0 0
-0.460938 0.648438 0.742188 0 0 0
-0.851562 -0.507812 0.148438 0 0 0
-0.570312 0.492188 -0.835938 0 0 0
0.132812 -0.742188 0.960938 0 0 0
1.039062 -0.007812 -0.382812 0 0 0
-0.226562 0.835938 0.742188 0 0 0
-0.070312 0.398438 0.257812 0 0 0
0.539062 0.648438 0.742188 0 0 0
-0.164062 0.507812 -0.757812 0 0 0
0.492188 0.679688 -0.164062 0 0 0
-0.398438 -0.710938 -0.039062 0 0 0
-0.789062 -0.898438 0.023438 0 0 0
-0.710938 0.460938 0.554688 0 0 0
-0.414062 -0.695312 -0.539062 0 0 0
-0.007812 -0.632812 0.023438 0 0 0
-0.867188 0.835938 0.914062 0 0 0
0.429688 0.304688 -0.023438 0 0 0
0.414062 -0.226562 1.007812 0 0 0
0.023438 0.898438 -0.085938 0 0 0
-0.695312 0.539062 -0.570312 0 0 0
-0.210938 -0.507812 0.945312 0 0 0
0.914062 -0.164062 -0.164062 0 0 0
-0.664062 0.898438 -0.914062 0 0 0
0.820312 -0.960938 -0.539062 0 0 0
-0.617188 0.382812 0.554688 0 0 0
-0.070312 -0.570312 -0.460938 0 0 0
0.601562 0.585938 -0.882812 0 0 0
0.679688 0.726562 0.023438 0 0 0
-0.039062 -0.164062 0.914062 0 0 0
-0.742188 0.242188 -0.460938 0 0 0
0.929688 -0.132812 -0.820312 0 0 0
0.367188 0.742188 -0.585938 0 0 0
0.773438 -0.757812 0.742188 0 0 0
0.414062 0.289062 0.742188 0 0 0
0.820312 -0.335938 -0.335938 0 0 0
0.882812 -0.507812 -0.804688 0 0 0
-0.398438 0.945312 -0.257812 0 0 0
-0.617188 0.757812 -0.570312 0 0 0
-0.039062 -0.804688 0.976562 0 0 0
-0.257812 0.367188 0.476562 0 0 0
-0.007812 0.179688 0.742188 0 0 0
0.929688 -0.382812 -0.539062 0 0 0
-0.554688 0.835938 -0.335938 0 0 0
-0.726562 0.070312 -0.085938 0 0 0
-0.617188 0.414062 0.742188 0 0 0
0.367188 -0.335938 0.257812 0 0 0
0.914062 -0.523438 1.007812 0 0 0
-0.257812 0.835938 0.742188 0 0 0
0.539062 -0.070312 0.742188 0 0 0
0.023438 0.914062 0.742188 0 0 0
0.054688 0.835938 -0.007812 0 0 0
-0.664062 0.289062 -0.835938 0 0 0
1.039062 0.054688 -0.023438 0 0 0
-0.554688 0.742188 0.601562 0 0 0
0.367188 0.023438 0.257812 0 0 0
0.070312 -0.460938 -0.695312 0 0 0
0.835938 -0.070312 0.039062 0 0 0
-0.617188 0.960938 -0.507812 0 0 0
0.820312 -0.585938 -0.914062 0 0 0
0.367188 -0.507812 -0.039062 0 0 0
0.429688 -0.429688 0.710938 0 0 0
0.804688 0.289062 1.007812 0 0 0
0.617188 0.570312 0.273438 0 0 0
0.867188 -0.382812 0.851562 0 0 0
-0.773438 0.710938 -0.148438 0 0 0
0.367188 0.007812 0.085938 0 0 0
0.460938 0.617188 1.007812 0 0 0
-0.960938 -0.960938 -0.742188 0 0 0
0.914062 0.648438 0.601562 0 0 0
-0.789062 0.414062 0.742188 0 0 0
1.039062 -0.507812 0.945312 0 0 0
0.164062 -0.429688 0.710938 0 0 0
-0.617188 0.695312 0.867188 0 0 0
-0.023438 0.867188 0.039062 0 0 0
-0.414062 0.289062 0.257812 0 0 0
0.914062 0.351562 -0.054688 0 0 0
0.351562 -0.070312 -0.335938 0 0 0
-0.664062 -0.851562 0.085938 0 0 0
0.210938 -0.492188 -0.023438 0 0 0
0.226562 0.257812 0.195312 0 0 0
0.929688 0.335938 0.335938 0 0 0
0.914062 -0.820312 0.335938 0 0 0
0.523438 -0.960938 -0.789062 0 0 0
0.351562 0.992188 0.742188 0 0 0
0.304688 1.007812 -0.117188 0 0 0
-0.179688 -0.335938 -0.335938 0 0 0
0.117188 -0.429688 -0.929688 0 0 0
0.304688 0.289062 -0.460938 0 0 0
-0.664062 0.367188 -0.882812 0 0 0
0.804688 0.382812 1.007812 0 0 0
-0.773438 0.742188 -0.007812 0 0 0
-0.820312 0.054688 0.179688 0 0 0
0.929688 -0.164062 -0.835938 0 0 0
-0.070312 0.117188 0.757812 0 0 0
0.835938 -0.804688 0.914062 0 0 0
0.367188 0.773438 -0.382812 0 0 0
-0.070312 0.117188 1.039062 0 0 0
-0.960938 -0.148438 0.523438 0 0 0
-0.820312 -0.585938 -0.148438 0 0 0
-0.132812 0.117188 -0.367188 0 0 0
0.179688 0.570312 -0.835938 0 0 0
0.429688 -0.851562 0.164062 0 0 0
0.820312 0.429688 0.601562 0 0 0
0.351562 -0.523438 0.710938 0 0 0
-0.992188 -0.492188 -0.742188 0 0 0
-0.492188 0.257812 -0.992188 0 0 0
-0.867188 0.585938 -0.601562 0 0 0
0.804688 0.976562 -0.023438 0 0 0
0.320312 -0.882812 0.820312 0 0 0
-0.820312 0.992188 -0.554688 0 0 0
0.835938 0.398438 -0.210938 0 0 0
0.429688 -0.507812 0.382812 0 0 0
0.929688 0.648438 -0.398438 0 0 0
-0.210938 0.460938 0.382812 0 0 0
0.320312 -0.070312 -0.914062 0 0 0
-0.398438 -0.632812 -0.789062 0 0 0
-0.773438 0.117188 -0.398438 0 0 0
-0.039062 -0.710938 0.335938 0 0 0
-0.648438 0.289062 -0.367188 0 0 0
0.601562 0.648438 -0.007812 0 0 0
-0.179688 0.648438 -0.554688 0 0 0
0.882812 0.054688 0.820312 0 0 0
0.367188 0.367188 0.164062 0 0 0
0.367188 -0.429688 0.132812 0 0 0
0.210938 -0.429688 0.914062 0 0 0
0.882812 -0.148438 -0.335938 0 0 0
0.039062 -0.710938 -0.460938 0 0 0
-0.820312 0.757812 -0.382812 0 0 0
-0.039062 0.851562 -0.914062 0 0 0
-0.789062 -0.132812 -0.210938 0 0 0
0.414062 -0.710938 -0.460938 0 0 0
0.851562 -0.507812 -0.695312 0 0 0
0.492188 -0.382812 -0.914062 0 0 0
0.882812 0.023438 -0.398438 0 0 0
0.914062 0.726562 0.601562 0 0 0
0.117188 -0.414062 0.148438 0 0 0
-0.273438 -0.632812 -0.382812 0 0 0
0.539062 0.382812 -0.570312 0 0 0
-0.976562 -0.523438 0.742188 0 0 0
0.351562 0.273438 0.742188 0 0 0
0.804688 -0.164062 -0.460938 0 0 0
-0.335938 0.382812 -0.789062 0 0 0
0.351562 0.007812 0.710938 0 0 0
-0.414062 0.398438 -0.367188 0 0 0
0.820312 0.679688 -0.460938 0 0 0
0.789062 0.648438 0.039062 0 0 0
0.039062 0.398438 -0.148438 0 0 0
-0.789062 -0.429688 -0.460938 0 0 0
0.679688 -0.054688 -0.585938 0 0 0
0.320312 0.867188 -0.882812 0 0 0
-0.773438 0.242188 0.023438 0 0 0
0.351562 -0.601562 0.304688 0 0 0
-0.617188 0.414062 0.070312 0 0 0
0.273438 0.429688 -0.007812 0 0 0
-0.789062 0.289062 0.523438 0 0 0
-0.820312 -0.648438 -0.460938 0 0 0
0.742188 0.554688 0.710938 0 0 0
-0.414062 0.132812 -0.492188 0 0 0
-0.945312 0.992188 -0.007812 0 0 0
-0.976562 0.367188 -0.007812 0 0 0
-0.789062 0.398438 -0.492188 0 0 0
-0.601562 -0.226562 0.117188 0 0 0
-0.164062 0.648438 -0.382812 0 0 0
0.085938 -0.226562 0.554688 0 0 0
-0.023438 -0.523438 -0.289062 0 0 0
0.351562 0.132812 -0.085938 0 0 0
-0.179688 0.023438 0.914062 0 0 0
-0.867188 -0.710938 -0.757812 0 0 0
0.492188 -0.867188 -0.335938 0 0 0
0.320312 0.414062 -0.804688 0 0 0
0.039062 0.335938 -0.835938 0 0 0
-0.773438 0.289062 -0.539062 0 0 0
-0.867188 -0.523438 -0.335938 0 0 0
0.445312 0.289062 0.023438 0 0 0
-0.742188 -0.507812 0.523438 0 0 0
-0.398438 0.414062 0.539062 0 0 0
0.882812 0.289062 0.039062 0 0 0
-0.117188 -0.867188 -0.023438 0 0 0
0.382812 -0.226562 -0.257812 0 0 0
0.210938 -0.132812 -0.929688 0 0 0
0.320312 0.429688 -0.039062 0 0 0
0.492188 0.742188 1.007812 0 0 0
0.835938 0.070312 -0.273438 0 0 0
0.835938 0.007812 0.601562 0 0 0
-0.914062 0.382812 0.601562 0 0 0
0.914062 -0.960938 -0.335938 0 0 0
1.039062 -0.789062 0.195312 0 0 0
0.273438 0.117188 -0.789062 0 0 0
0.039062 0.960938 -0.851562 0 0 0
0.914062 -0.429688 -0.804688 0 0 0
-0.726562 0.335938 -0.914062 0 0 0
0.882812 -0.382812 -0.398438 0 0 0
0.039062 0.101562 -0.101562 0 0 0
-0.210938 0.695312 0.742188 0 0 0
-0.226562 -0.710938 -0.882812 0 0 0
0.023438 -0.429688 0.742188 0 0 0
-0.992188 -0.554688 0.039062 0 0 0
0.851562 -0.492188 -0.460938 0 0 0
-0.804688 0.117188 -0.210938 0 0 0
-0.976562 0.867188 0.289062 0 0 0
0.851562 -0.320312 -0.460938 0 0 0
-0.601562 -0.148438 0.023438 0 0 0
0.820312 -0.007812 -0.632812 0 0 0
0.929688 -0.414062 0.539062 0 0 0
-0.039062 -0.335938 -0.367188 0 0 0
0.570312 -0.648438 -0.023438 0 0 0
0.679688 0.117188 -0.023438 0 0 0
0.335938 0.023438 -0.289062 0 0 0
0.351562 -0.429688 -0.023438 0 0 0
0.570312 0.398438 0.742188 0 0 0
0.039062 0.007812 -0.210938 0 0 0
-0.179688 -0.585938 0.742188 0 0 0
0.679688 -0.632812 -0.773438 0 0 0
0.429688 0.117188 0.742188 0 0 0
0.804688 0.382812 -0.914062 0 0 0
-0.710938 -0.445312 0.976562 0 0 0
0.742188 -0.429688 -0.570312 0 0 0
0.132812 0.554688 -0.195312 0 0 0
-0.414062 -0.460938 0.914062 0 0 0
-0.929688 0.570312 0.023438 0 0 0
0.523438 -0.148438 0.117188 0 0 0
0.210938 0.648438 0.523438 0 0 0
-0.414062 -0.632812 0.554688 0 0 0
0.429688 0.757812 -0.164062 0 0 0
0.351562 0.054688 -0.835938 0 0 0
-0.960938 0.382812 0.757812 0 0 0
-0.070312 0.757812 -0.382812 0 0 0
3 0 1 2
3 3 4 5
3 6 7 8
3 9 10 11
3 12 13 14
3 15 16 17
3 18 19 20
3 21 22 23
3 24 25 26
3 27 28 29
3 30 31 32
3 33 34 35
3 36 37 38
3 39 40 41
3 42 43 44
3 45 46 47
3 48 49 50
3 51 52 53
3 54 55 56
3 57 58 59
3 60 61 62
3 63 64 65
3 66 67 68
3 69 70 71
3 72 73 74
3 75 76 77
3 78 79 80
3 81 82 83
3 84 85 86
3 87 88 89
3 90 91 92
3 93 94 95
3 96 97 98
3 99 100 101
3 102 103 104
3 105 106 107
3 108 109 110
3 111 112 113
3 114 115 116
3 117 118 119
3 120 121 122
3 123 124 125
3 126 127 128
3 129 130 131
3 132 133 134
3 135 136 137
3 138 139 140
3 141 142 143
3 144 145 146
3 147 148 149
3 150 151 152
3 153 154 155
3 156 157 158
3 159 160 161
3 162 163 164
3 165 166 167
3 168 169 170
3 171 172 173
3 174 175 176
3 177 178 179
3 180 181 182
3 183 184 185
3 186 187 188
3 189 190 191
3 192 193 194
3 195 196 197
3 198 199 200
3 201 202 203
3 204 205 206
3 207 208 209
3 210 211 212
3 213 214 215
3 216 217 218
3 219 220 221
3 222 223 224
3 225 226 227
3 228 229 230
