ply
format ascii 1.0
element vertex 12
property float x
property float y
property float z
property uchar red
property uchar green
property uchar blue
element face 4
property list uchar uint vertex_indices
end_header
0.195312 0.007812 -0.257812 0 0 0
0.882812 -0.148438 -0.039062 0 0 0
0.820312 -0.492188 0.242188 0 0 0
0.320312 0.367188 0.742188 0 0 0
-0.039062 -0.507812 0.351562 0 0 0
-0.648438 -0.632812 -0.835938 0 0 0
0.929688 0.992188 -0.460938 0 0 0
-0.851562 0.835938 0.914062 0 0 0
0.914062 0.914062 -0.570312 0 0 0
-0.039062 -0.507812 -0.007812 0 0 0
0.679688 -0.960938 -0.492188 0 0 0
-0.960938 -0.507812 -0.398438 0 0 0
3 0 1 2
3 3 4 5
3 6 7 8
3 9 10 11
