ply
format ascii 1.0
element vertex 9
property float x
property float y
property float z
property uchar red
property uchar green
property uchar blue
element face 3
property list uchar uint vertex_indices
end_header
-0.789062 -0.820312 0.710938 0 0 0
-0.023438 0.679688 0.992188 0 0 0
0.914062 0.585938 0.992188 0 0 0
-0.179688 0.367188 1.007812 0 0 0
0.570312 0.507812 0.679688 0 0 0
-0.804688 -0.882812 -0.492188 0 0 0
-0.726562 0.054688 -0.632812 0 0 0
0.367188 -0.632812 -0.023438 0 0 0
-0.664062 0.007812 0.789062 0 0 0
3 0 1 2
3 3 4 5
3 6 7 8
