ply
format ascii 1.0
element vertex 18
property float x
property float y
property float z
property uchar red
property uchar green
property uchar blue
element face 6
property list uchar uint vertex_indices
end_header
-0.789062 -0.632812 -0.976562 0 0 0
-0.976562 0.289062 0.148438 0 0 0
0.320312 -0.804688 -0.210938 0 0 0
-0.179688 0.132812 -0.757812 0 0 0
-0.023438 0.585938 -0.210938 0 0 0
0.773438 -0.507812 0.742188 0 0 0
0.148438 -0.882812 -0.617188 0 0 0
-0.929688 0.835938 -0.289062 0 0 0
-0.117188 0.960938 -0.257812 0 0 0
0.617188 0.757812 1.007812 0 0 0
-0.148438 0.757812 0.945312 0 0 0
-0.382812 0.648438 0.382812 0 0 0
-0.210938 0.757812 -0.992188 0 0 0
0.789062 0.976562 -0.804688 0 0 0
0.804688 0.742188 -0.992188 0 0 0
0.617188 -0.460938 -0.570312 0 0 0
-0.804688 0.242188 -0.492188 0 0 0
0.320312 0.117188 0.742188 0 0 0
3 0 1 2
3 3 4 5
3 6 7 8
3 9 10 11
3 12 13 14
3 15 16 17
