ply
format ascii 1.0
element vertex 12
property float x
property float y
property float z
property uchar red
property uchar green
property uchar blue
element face 4
property list uchar uint vertex_indices
end_header
-0.179688 0.648438 0.945312 0 0 0
1.039062 -0.507812 -0.039062 0 0 0
-0.648438 -0.882812 -0.460938 0 0 0
0.523438 0.570312 0.742188 0 0 0
-0.664062 -0.710938 0.132812 0 0 0
-0.914062 0.742188 0.382812 0 0 0
-0.210938 -0.710938 -0.976562 0 0 0
-0.132812 0.679688 -0.023438 0 0 0
0.179688 -0.804688 -0.398438 0 0 0
0.851562 0.960938 0.945312 0 0 0
0.882812 -0.507812 -0.992188 0 0 0
0.367188 -0.335938 0.257812 0 0 0
3 0 1 2
3 3 4 5
3 6 7 8
3 9 10 11
