ply
format ascii 1.0
element vertex 12
property float x
property float y
property float z
property uchar red
property uchar green
property uchar blue
element face 4
property list uchar uint vertex_indices
end_header
-0.617188 0.398438 -0.992188 0 0 0
-0.789062 0.101562 0.398438 0 0 0
-0.039062 0.398438 -0.492188 0 0 0
1.039062 -0.070312 -0.273438 0 0 0
0.210938 -0.226562 -0.992188 0 0 0
-0.710938 -0.570312 -0.992188 0 0 0
0.617188 0.242188 0.960938 0 0 0
0.617188 0.273438 0.914062 0 0 0
-0.789062 -0.382812 0.382812 0 0 0
0.867188 -0.382812 -0.335938 0 0 0
0.523438 0.585938 0.742188 0 0 0
0.070312 -0.945312 0.023438 0 0 0
3 0 1 2
3 3 4 5
3 6 7 8
3 9 10 11
