ply
format ascii 1.0
element vertex 15
property float x
property float y
property float z
property uchar red
property uchar green
property uchar blue
element face 5
property list uchar uint vertex_indices
end_header
0.851562 -0.492188 0.710938 0 0 0
0.914062 0.414062 -0.570312 0 0 0
0.882812 0.851562 -0.335938 0 0 0
0.867188 -0.632812 -0.914062 0 0 0
0.929688 0.570312 0.960938 0 0 0
-0.960938 -0.382812 -0.195312 0 0 0
-0.210938 0.726562 0.757812 0 0 0
0.867188 -0.351562 -0.304688 0 0 0
-0.007812 0.117188 0.398438 0 0 0
0.820312 -0.507812 0.945312 0 0 0
-0.617188 0.273438 0.132812 0 0 0
-0.164062 -0.429688 -0.820312 0 0 0
0.914062 -0.679688 0.382812 0 0 0
0.539062 0.070312 0.039062 0 0 0
-0.070312 -0.648438 0.742188 0 0 0
3 0 1 2
3 3 4 5
3 6 7 8
3 9 10 11
3 12 13 14
