ply
format ascii 1.0
element vertex 15
property float x
property float y
property float z
property uchar red
property uchar green
property uchar blue
element face 5
property list uchar uint vertex_indices
end_header
0.320312 -0.992188 -0.179688 0 0 0
-0.335938 0.601562 0.726562 0 0 0
0.585938 0.945312 0.742188 0 0 0
0.085938 -0.335938 0.664062 0 0 0
0.054688 0.851562 0.648438 0 0 0
0.789062 0.054688 -0.742188 0 0 0
0.007812 -0.726562 0.851562 0 0 0
0.351562 0.617188 0.351562 0 0 0
-0.132812 0.085938 -0.148438 0 0 0
-0.648438 0.742188 -0.179688 0 0 0
0.773438 -0.039062 -0.039062 0 0 0
0.742188 0.382812 -0.148438 0 0 0
0.507812 -0.992188 0.742188 0 0 0
0.257812 -0.148438 -0.070312 0 0 0
-0.492188 0.867188 -0.992188 0 0 0
3 0 1 2
3 3 4 5
3 6 7 8
3 9 10 11
3 12 13 14
