ply
format ascii 1.0
element vertex 12
property float x
property float y
property float z
property uchar red
property uchar green
property uchar blue
element face 4
property list uchar uint vertex_indices
end_header
0.664062 -0.085938 -0.492188 0 0 0
-0.960938 -0.617188 -0.179688 0 0 0
0.289062 0.867188 0.742188 0 0 0
0.882812 0.351562 -0.679688 0 0 0
-0.210938 -0.726562 0.585938 0 0 0
0.945312 -0.367188 0.945312 0 0 0
0.289062 -0.054688 0.976562 0 0 0
-0.554688 0.164062 0.507812 0 0 0
-0.726562 0.242188 -0.492188 0 0 0
0.242188 -0.554688 0.617188 0 0 0
-0.632812 0.945312 0.945312 0 0 0
-0.945312 -0.960938 0.523438 0 0 0
3 0 1 2
3 3 4 5
3 6 7 8
3 9 10 11
