ply
format ascii 1.0
element vertex 15
property float x
property float y
property float z
property uchar red
property uchar green
property uchar blue
element face 5
property list uchar uint vertex_indices
end_header
0.804688 0.664062 -0.539062 0 0 0
-0.992188 0.742188 -0.492188 0 0 0
-0.023438 0.601562 -0.992188 0 0 0
-0.148438 0.601562 0.492188 0 0 0
-0.617188 0.351562 -0.585938 0 0 0
-0.648438 -0.132812 0.976562 0 0 0
0.742188 0.867188 0.601562 0 0 0
-0.617188 -0.429688 -0.179688 0 0 0
-0.132812 0.867188 -0.320312 0 0 0
-0.664062 0.085938 0.414062 0 0 0
0.820312 -0.632812 -0.664062 0 0 0
-0.992188 -0.882812 0.742188 0 0 0
-0.132812 0.710938 0.867188 0 0 0
0.257812 -0.367188 0.945312 0 0 0
-0.132812 0.257812 0.382812 0 0 0
3 0 1 2
3 3 4 5
3 6 7 8
3 9 10 11
3 12 13 14
