ply
format ascii 1.0
element vertex 9
property float x
property float y
property float z
property uchar red
property uchar green
property uchar blue
element face 3
property list uchar uint vertex_indices
end_header
-0.273438 0.945312 -0.554688 0 0 0
-0.445312 0.867188 0.945312 0 0 0
0.460938 0.726562 -0.289062 0 0 0
-0.835938 0.320312 -0.148438 0 0 0
0.742188 -0.773438 0.476562 0 0 0
-0.664062 0.085938 -0.585938 0 0 0
0.226562 0.945312 0.664062 0 0 0
0.695312 0.726562 0.664062 0 0 0
-0.976562 0.882812 -0.726562 0 0 0
3 0 1 2
3 3 4 5
3 6 7 8
