ply
format ascii 1.0
element vertex 12
property float x
property float y
property float z
property uchar red
property uchar green
property uchar blue
element face 4
property list uchar uint vertex_indices
end_header
0.710938 0.085938 -0.226562 0 0 0
-0.242188 0.945312 0.273438 0 0 0
0.257812 -0.085938 0.273438 0 0 0
1.007812 0.648438 0.085938 0 0 0
0.664062 -0.976562 -0.132812 0 0 0
0.632812 -0.539062 0.289062 0 0 0
-0.554688 0.695312 0.960938 0 0 0
-0.476562 -0.898438 0.914062 0 0 0
-0.492188 -0.148438 -0.226562 0 0 0
0.976562 0.648438 -0.273438 0 0 0
-0.835938 -0.070312 -0.226562 0 0 0
-0.070312 0.273438 0.414062 0 0 0
3 0 1 2
3 3 4 5
3 6 7 8
3 9 10 11
