ply
format ascii 1.0
element vertex 21
property float x
property float y
property float z
property uchar red
property uchar green
property uchar blue
element face 7
property list uchar uint vertex_indices
end_header
-0.820312 -0.992188 -0.976562 0 0 0
0.289062 0.585938 -0.585938 0 0 0
-0.492188 -0.992188 -0.148438 0 0 0
-0.242188 -0.164062 -0.835938 0 0 0
0.976562 0.492188 0.695312 0 0 0
0.648438 -0.742188 -0.242188 0 0 0
-0.617188 -0.789062 0.085938 0 0 0
0.164062 -0.585938 -0.226562 0 0 0
-0.335938 -0.882812 -0.492188 0 0 0
-0.632812 0.320312 0.960938 0 0 0
-0.992188 0.726562 -0.226562 0 0 0
0.054688 -0.226562 0.414062 0 0 0
0.289062 -0.335938 -0.523438 0 0 0
0.742188 0.273438 -0.132812 0 0 0
-0.476562 -0.085938 0.601562 0 0 0
0.710938 -0.742188 0.257812 0 0 0
-0.492188 0.710938 0.242188 0 0 0
-0.492188 0.601562 -0.742188 0 0 0
-0.460938 0.632812 0.789062 0 0 0
-0.976562 1.007812 0.789062 0 0 0
0.289062 0.710938 0.976562 0 0 0
3 0 1 2
3 3 4 5
3 6 7 8
3 9 10 11
3 12 13 14
3 15 16 17
3 18 19 20
