ply
format ascii 1.0
element vertex 9
property float x
property float y
property float z
property uchar red
property uchar green
property uchar blue
element face 3
property list uchar uint vertex_indices
end_header
-0.132812 0.804688 0.601562 0 0 0
-0.085938 -0.976562 -0.132812 0 0 0
0.414062 0.976562 0.289062 0 0 0
-0.710938 -0.710938 -0.882812 0 0 0
-0.929688 -0.789062 -0.976562 0 0 0
0.257812 -0.976562 0.085938 0 0 0
0.070312 -0.742188 -0.179688 0 0 0
0.851562 -0.132812 -0.226562 0 0 0
0.882812 -0.226562 0.039062 0 0 0
3 0 1 2
3 3 4 5
3 6 7 8
