ply
format ascii 1.0
element vertex 9
property float x
property float y
property float z
property uchar red
property uchar green
property uchar blue
element face 3
property list uchar uint vertex_indices
end_header
-0.820312 0.101562 0.601562 0 0 0
0.726562 -0.742188 0.539062 0 0 0
0.710938 0.414062 0.242188 0 0 0
0.867188 0.085938 0.882812 0 0 0
0.695312 0.195312 0.945312 0 0 0
-0.664062 -0.632812 0.945312 0 0 0
-0.273438 0.289062 0.695312 0 0 0
-0.445312 0.710938 -0.148438 0 0 0
0.757812 0.820312 -0.992188 0 0 0
3 0 1 2
3 3 4 5
3 6 7 8
