ply
format ascii 1.0
element vertex 12
property float x
property float y
property float z
property uchar red
property uchar green
property uchar blue
element face 4
property list uchar uint vertex_indices
end_header
-0.382812 0.242188 0.867188 0 0 0
-0.148438 -0.242188 0.414062 0 0 0
0.820312 0.664062 -0.335938 0 0 0
0.648438 -0.398438 0.835938 0 0 0
0.710938 -0.148438 0.742188 0 0 0
0.914062 -0.945312 0.414062 0 0 0
-0.992188 -0.460938 -0.664062 0 0 0
0.273438 0.664062 -0.117188 0 0 0
-0.132812 -0.210938 -0.820312 0 0 0
-0.039062 0.289062 0.820312 0 0 0
-0.945312 -0.664062 -0.820312 0 0 0
0.289062 0.523438 0.242188 0 0 0
3 0 1 2
3 3 4 5
3 6 7 8
3 9 10 11
