ply
format ascii 1.0
element vertex 18
property float x
property float y
property float z
property uchar red
property uchar green
property uchar blue
element face 6
property list uchar uint vertex_indices
end_header
0.351562 -0.648438 -0.820312 0 0 0
-0.648438 -0.835938 0.070312 0 0 0
0.585938 -0.820312 0.664062 0 0 0
-0.023438 -0.882812 -0.367188 0 0 0
0.664062 0.648438 0.148438 0 0 0
-0.085938 0.710938 0.867188 0 0 0
-0.179688 0.945312 0.789062 0 0 0
-0.632812 0.710938 -0.882812 0 0 0
-0.148438 -0.945312 -0.117188 0 0 0
0.492188 0.351562 0.242188 0 0 0
0.867188 0.976562 0.414062 0 0 0
0.085938 0.976562 0.945312 0 0 0
0.742188 0.976562 -0.148438 0 0 0
0.382812 -0.210938 0.976562 0 0 0
0.710938 0.070312 -0.070312 0 0 0
-0.492188 -0.335938 0.945312 0 0 0
0.742188 -0.132812 0.492188 0 0 0
0.414062 -0.742188 0.867188 0 0 0
3 0 1 2
3 3 4 5
3 6 7 8
3 9 10 11
3 12 13 14
3 15 16 17
