ply
format ascii 1.0
element vertex 18
property float x
property float y
property float z
property uchar red
property uchar green
property uchar blue
element face 6
property list uchar uint vertex_indices
end_header
0.820312 0.945312 -0.945312 0 0 0
0.695312 -0.164062 0.632812 0 0 0
-0.664062 -0.164062 -0.726562 0 0 0
-0.148438 0.945312 -0.523438 0 0 0
0.632812 0.085938 0.976562 0 0 0
-0.335938 0.945312 0.085938 0 0 0
-0.476562 0.601562 -0.476562 0 0 0
0.601562 0.664062 0.945312 0 0 0
-0.476562 0.851562 0.976562 0 0 0
0.804688 0.726562 0.742188 0 0 0
-0.132812 0.414062 -0.882812 0 0 0
0.648438 -0.945312 -0.992188 0 0 0
-0.070312 0.976562 0.257812 0 0 0
-0.492188 -0.742188 0.523438 0 0 0
-0.117188 0.882812 0.085938 0 0 0
0.867188 -0.726562 -0.335938 0 0 0
0.570312 0.632812 0.851562 0 0 0
0.273438 -0.039062 -0.601562 0 0 0
3 0 1 2
3 3 4 5
3 6 7 8
3 9 10 11
3 12 13 14
3 15 16 17
