ply
format ascii 1.0
element vertex 9
property float x
property float y
property float z
property uchar red
property uchar green
property uchar blue
element face 3
property list uchar uint vertex_indices
end_header
-0.382812 0.710938 -0.726562 0 0 0
-0.132812 -0.585938 -0.023438 0 0 0
0.710938 -0.164062 -0.226562 0 0 0
0.867188 0.273438 -0.273438 0 0 0
0.492188 -0.773438 -0.773438 0 0 0
-0.617188 -0.726562 -0.523438 0 0 0
-0.992188 0.695312 -0.367188 0 0 0
0.085938 -0.367188 0.539062 0 0 0
0.710938 0.289062 -0.179688 0 0 0
3 0 1 2
3 3 4 5
3 6 7 8
