ply
format ascii 1.0
element vertex 60
property float x
property float y
property float z
property uchar red
property uchar green
property uchar blue
element face 20
property list uchar uint vertex_indices
end_header
0.945312 -0.632812 -0.992188 0 0 0
-0.117188 -0.835938 -0.945312 0 0 0
0.476562 -0.664062 -0.226562 0 0 0
-0.523438 -0.226562 -0.992188 0 0 0
-0.523438 -0.773438 -0.789062 0 0 0
0.257812 0.382812 -0.179688 0 0 0
-0.132812 0.242188 0.820312 0 0 0
-0.617188 0.742188 -0.367188 0 0 0
0.710938 0.710938 -0.710938 0 0 0
-0.382812 -0.664062 -0.492188 0 0 0
-0.367188 0.085938 -0.023438 0 0 0
-0.117188 0.273438 0.851562 0 0 0
0.242188 0.085938 -0.523438 0 0 0
-0.882812 -0.648438 0.851562 0 0 0
-0.945312 0.273438 0.242188 0 0 0
-0.226562 -0.742188 -0.429688 0 0 0
0.710938 0.539062 -0.226562 0 0 0
0.273438 -0.164062 -0.367188 0 0 0
-0.335938 -0.117188 0.273438 0 0 0
0.648438 -0.492188 -0.226562 0 0 0
0.414062 -0.164062 -0.460938 0 0 0
-0.960938 0.820312 -0.492188 0 0 0
0.945312 -0.617188 -0.148438 0 0 0
0.726562 -0.226562 -0.742188 0 0 0
-0.742188 0.632812 -0.945312 0 0 0
0.710938 0.351562 0.273438 0 0 0
0.945312 -0.335938 -0.132812 0 0 0
-0.210938 -0.492188 -0.882812 0 0 0
0.710938 -0.460938 -0.945312 0 0 0
0.148438 0.148438 -0.257812 0 0 0
0.976562 0.492188 -0.429688 0 0 0
0.289062 0.382812 0.523438 0 0 0
-0.945312 -0.617188 0.289062 0 0 0
0.085938 -0.617188 0.867188 0 0 0
-0.726562 -0.367188 -0.476562 0 0 0
-0.210938 0.164062 -0.882812 0 0 0
0.726562 -0.617188 0.914062 0 0 0
-0.476562 0.757812 0.648438 0 0 0
0.757812 0.664062 -0.257812 0 0 0
0.914062 0.976562 0.523438 0 0 0
-0.617188 0.351562 0.726562 0 0 0
-0.179688 -0.945312 0.867188 0 0 0
-0.476562 0.851562 0.851562 0 0 0
0.851562 -0.882812 0.289062 0 0 0
0.367188 -0.945312 -0.960938 0 0 0
-0.882812 0.945312 -0.789062 0 0 0
0.742188 0.085938 0.523438 0 0 0
0.773438 -0.148438 0.945312 0 0 0
-0.664062 -0.539062 0.945312 0 0 0
-0.117188 0.835938 -0.632812 0 0 0
0.085938 0.492188 -0.945312 0 0 0
-0.585938 0.539062 -0.320312 0 0 0
0.882812 0.273438 -0.164062 0 0 0
0.867188 -0.742188 0.601562 0 0 0
0.726562 0.585938 -0.382812 0 0 0
0.726562 0.867188 -0.476562 0 0 0
-0.210938 -0.476562 0.710938 0 0 0
-0.445312 0.132812 -0.148438 0 0 0
-0.335938 0.742188 -0.367188 0 0 0
0.273438 -0.460938 0.242188 0 0 0
3 0 1 2
3 3 4 5
3 6 7 8
3 9 10 11
3 12 13 14
3 15 16 17
3 18 19 20
3 21 22 23
3 24 25 26
3 27 28 29
3 30 31 32
3 33 34 35
3 36 37 38
3 39 40 41
3 42 43 44
3 45 46 47
3 48 49 50
3 51 52 53
3 54 55 56
3 57 58 59
