ply
format ascii 1.0
element vertex 12
property float x
property float y
property float z
property uchar red
property uchar green
property uchar blue
element face 4
property list uchar uint vertex_indices
end_header
0.601562 0.789062 0.648438 0 0 0
-0.148438 -0.648438 0.726562 0 0 0
0.804688 -0.976562 0.710938 0 0 0
1.007812 -0.132812 -0.226562 0 0 0
0.804688 0.414062 0.039062 0 0 0
0.414062 -0.632812 0.382812 0 0 0
0.632812 0.351562 0.148438 0 0 0
-0.023438 -0.820312 0.492188 0 0 0
-0.179688 0.148438 -0.085938 0 0 0
0.664062 0.523438 0.289062 0 0 0
0.882812 -0.820312 0.945312 0 0 0
0.601562 0.710938 -0.648438 0 0 0
3 0 1 2
3 3 4 5
3 6 7 8
3 9 10 11
