ply
format ascii 1.0
element vertex 12
property float x
property float y
property float z
property uchar red
property uchar green
property uchar blue
element face 4
property list uchar uint vertex_indices
end_header
0.664062 0.601562 -0.179688 0 0 0
-0.335938 0.945312 -0.992188 0 0 0
-0.335938 -0.976562 -0.039062 0 0 0
-0.820312 0.820312 0.101562 0 0 0
0.945312 -0.820312 0.945312 0 0 0
-0.273438 0.601562 0.945312 0 0 0
-0.617188 -0.617188 0.914062 0 0 0
-0.148438 -0.492188 -0.882812 0 0 0
0.257812 -0.367188 -0.304688 0 0 0
0.945312 0.414062 0.789062 0 0 0
0.742188 -0.164062 -0.070312 0 0 0
-0.976562 -0.492188 -0.648438 0 0 0
3 0 1 2
3 3 4 5
3 6 7 8
3 9 10 11
