ply
format ascii 1.0
element vertex 24
property float x
property float y
property float z
property uchar red
property uchar green
property uchar blue
element face 8
property list uchar uint vertex_indices
end_header
0.742188 0.789062 -0.335938 0 0 0
-0.382812 0.945312 -0.367188 0 0 0
0.414062 -0.632812 -0.835938 0 0 0
-0.085938 0.273438 0.414062 0 0 0
-0.742188 -0.210938 0.867188 0 0 0
-0.742188 -0.070312 0.351562 0 0 0
-0.789062 -0.742188 0.835938 0 0 0
-0.992188 -0.632812 0.507812 0 0 0
-0.617188 -0.289062 -0.179688 0 0 0
0.289062 -0.523438 0.257812 0 0 0
0.085938 0.195312 0.664062 0 0 0
0.648438 -0.335938 -0.367188 0 0 0
0.742188 -0.492188 -0.945312 0 0 0
0.085938 0.882812 0.820312 0 0 0
-0.539062 0.695312 0.742188 0 0 0
-0.882812 -0.492188 0.632812 0 0 0
-0.882812 -0.273438 0.085938 0 0 0
-0.367188 0.835938 0.414062 0 0 0
0.945312 0.945312 0.867188 0 0 0
-0.632812 -0.523438 -0.132812 0 0 0
0.820312 -0.992188 0.851562 0 0 0
0.570312 0.851562 0.164062 0 0 0
-0.632812 0.414062 -0.070312 0 0 0
0.601562 0.523438 0.523438 0 0 0
3 0 1 2
3 3 4 5
3 6 7 8
3 9 10 11
3 12 13 14
3 15 16 17
3 18 19 20
3 21 22 23
