ply
format ascii 1.0
element vertex 9
property float x
property float y
property float z
property uchar red
property uchar green
property uchar blue
element face 3
property list uchar uint vertex_indices
end_header
0.820312 -0.820312 -0.554688 0 0 0
-0.507812 -0.023438 0.507812 0 0 0
-0.132812 -0.820312 0.289062 0 0 0
-0.085938 -0.367188 -0.835938 0 0 0
-0.726562 -0.789062 0.507812 0 0 0
-0.882812 0.085938 0.695312 0 0 0
-0.492188 -0.726562 0.945312 0 0 0
-0.507812 0.351562 -0.398438 0 0 0
-0.710938 0.867188 -0.820312 0 0 0
3 0 1 2
3 3 4 5
3 6 7 8
