ply
format ascii 1.0
element vertex 12
property float x
property float y
property float z
property uchar red
property uchar green
property uchar blue
element face 4
property list uchar uint vertex_indices
end_header
-0.742188 0.648438 -0.492188 0 0 0
-0.132812 0.867188 0.945312 0 0 0
-0.132812 -0.492188 -0.132812 0 0 0
-0.085938 -0.726562 0.351562 0 0 0
-0.617188 0.789062 -0.179688 0 0 0
-0.492188 -0.085938 -0.335938 0 0 0
-0.132812 0.289062 0.757812 0 0 0
0.695312 -0.945312 -0.335938 0 0 0
0.101562 -0.226562 -0.726562 0 0 0
0.710938 -0.070312 -0.492188 0 0 0
-0.070312 0.242188 -0.367188 0 0 0
-0.898438 0.242188 0.414062 0 0 0
3 0 1 2
3 3 4 5
3 6 7 8
3 9 10 11
