ply
format ascii 1.0
element vertex 15
property float x
property float y
property float z
property uchar red
property uchar green
property uchar blue
element face 5
property list uchar uint vertex_indices
end_header
0.070312 -0.460938 0.820312 0 0 0
-0.226562 -0.726562 0.742188 0 0 0
-0.882812 -0.148438 0.070312 0 0 0
-0.882812 0.820312 -0.101562 0 0 0
-0.882812 -0.726562 -0.789062 0 0 0
-0.210938 0.632812 0.789062 0 0 0
-0.726562 -0.617188 -0.632812 0 0 0
-0.335938 -0.632812 0.085938 0 0 0
-0.523438 0.773438 0.742188 0 0 0
-0.632812 -0.617188 0.914062 0 0 0
-0.445312 -0.132812 0.007812 0 0 0
-0.992188 -0.898438 0.570312 0 0 0
-0.742188 0.101562 -0.523438 0 0 0
-0.726562 0.289062 0.601562 0 0 0
-0.539062 0.273438 -0.179688 0 0 0
3 0 1 2
3 3 4 5
3 6 7 8
3 9 10 11
3 12 13 14
