ply
format ascii 1.0
element vertex 12
property float x
property float y
property float z
property uchar red
property uchar green
property uchar blue
element face 4
property list uchar uint vertex_indices
end_header
0.742188 0.960938 0.085938 0 0 0
-0.148438 -0.648438 -0.585938 0 0 0
0.085938 0.085938 0.945312 0 0 0
-0.085938 0.085938 0.945312 0 0 0
-0.070312 -0.835938 -0.148438 0 0 0
0.242188 0.976562 0.632812 0 0 0
0.882812 0.570312 -0.023438 0 0 0
-0.164062 -0.070312 0.804688 0 0 0
0.851562 0.976562 0.882812 0 0 0
1.007812 -0.179688 0.804688 0 0 0
1.007812 0.851562 0.429688 0 0 0
0.039062 -0.070312 -0.273438 0 0 0
3 0 1 2
3 3 4 5
3 6 7 8
3 9 10 11
