ply
format ascii 1.0
element vertex 9
property float x
property float y
property float z
property uchar red
property uchar green
property uchar blue
element face 3
property list uchar uint vertex_indices
end_header
-0.882812 0.632812 0.226562 0 0 0
-0.164062 0.664062 -0.164062 0 0 0
-0.882812 0.351562 0.257812 0 0 0
0.632812 -0.617188 -0.835938 0 0 0
0.085938 0.804688 0.867188 0 0 0
0.945312 0.976562 -0.554688 0 0 0
0.695312 0.351562 0.664062 0 0 0
-0.148438 -0.070312 -0.148438 0 0 0
-0.945312 -0.554688 0.804688 0 0 0
3 0 1 2
3 3 4 5
3 6 7 8
