ply
format ascii 1.0
element vertex 21
property float x
property float y
property float z
property uchar red
property uchar green
property uchar blue
element face 7
property list uchar uint vertex_indices
end_header
0.070312 0.945312 -0.335938 0 0 0
0.664062 0.710938 -0.820312 0 0 0
-0.070312 -0.617188 -0.085938 0 0 0
-0.179688 0.351562 0.039062 0 0 0
-0.617188 0.742188 -0.179688 0 0 0
-0.085938 -0.523438 0.945312 0 0 0
0.039062 0.789062 -0.367188 0 0 0
-0.367188 -0.945312 -0.429688 0 0 0
0.523438 -0.851562 0.289062 0 0 0
0.289062 1.007812 -0.976562 0 0 0
-0.039062 0.085938 0.351562 0 0 0
-0.835938 -0.023438 0.851562 0 0 0
-0.023438 0.710938 -0.085938 0 0 0
-0.476562 -0.523438 0.742188 0 0 0
0.179688 -0.710938 0.085938 0 0 0
0.070312 -0.601562 -0.476562 0 0 0
0.351562 0.742188 0.007812 0 0 0
-0.945312 -0.367188 0.257812 0 0 0
-0.210938 -0.023438 -0.039062 0 0 0
-0.132812 -0.164062 0.867188 0 0 0
-0.710938 -0.210938 0.085938 0 0 0
3 0 1 2
3 3 4 5
3 6 7 8
3 9 10 11
3 12 13 14
3 15 16 17
3 18 19 20
