ply
format ascii 1.0
element vertex 9
property float x
property float y
property float z
property uchar red
property uchar green
property uchar blue
element face 3
property list uchar uint vertex_indices
end_header
0.085938 -0.976562 -0.085938 0 0 0
0.726562 0.054688 0.851562 0 0 0
-0.148438 -0.992188 -0.101562 0 0 0
-0.945312 -0.164062 0.617188 0 0 0
0.617188 -0.617188 -0.210938 0 0 0
-0.070312 -0.164062 -0.023438 0 0 0
-0.132812 0.789062 0.242188 0 0 0
0.882812 -0.070312 1.007812 0 0 0
0.085938 -0.617188 0.085938 0 0 0
3 0 1 2
3 3 4 5
3 6 7 8
