ply
format ascii 1.0
element vertex 9
property float x
property float y
property float z
property uchar red
property uchar green
property uchar blue
element face 3
property list uchar uint vertex_indices
end_header
-0.382812 -0.726562 -0.023438 0 0 0
-0.335938 0.945312 -0.085938 0 0 0
0.070312 0.289062 0.664062 0 0 0
0.976562 0.726562 -0.179688 0 0 0
-0.367188 0.867188 -0.335938 0 0 0
-0.523438 -0.648438 0.945312 0 0 0
-0.523438 -0.570312 -0.695312 0 0 0
0.664062 -0.945312 0.742188 0 0 0
0.867188 -0.023438 0.851562 0 0 0
3 0 1 2
3 3 4 5
3 6 7 8
