ply
format ascii 1.0
element vertex 9
property float x
property float y
property float z
property uchar red
property uchar green
property uchar blue
element face 3
property list uchar uint vertex_indices
end_header
0.976562 0.085938 0.867188 0 0 0
-0.976562 0.085938 0.414062 0 0 0
-0.585938 0.976562 -0.835938 0 0 0
-0.164062 0.476562 0.054688 0 0 0
-0.539062 0.976562 0.148438 0 0 0
-0.835938 0.726562 0.804688 0 0 0
-0.976562 0.960938 -0.726562 0 0 0
0.445312 0.726562 0.257812 0 0 0
0.695312 0.085938 -0.539062 0 0 0
3 0 1 2
3 3 4 5
3 6 7 8
