ply
format ascii 1.0
element vertex 12
property float x
property float y
property float z
property uchar red
property uchar green
property uchar blue
element face 4
property list uchar uint vertex_indices
end_header
0.320312 0.242188 0.273438 0 0 0
-0.132812 0.726562 -0.226562 0 0 0
0.742188 0.632812 -0.164062 0 0 0
0.273438 0.851562 -0.632812 0 0 0
0.414062 0.945312 -0.726562 0 0 0
-0.898438 0.085938 -0.523438 0 0 0
-0.382812 0.695312 -0.554688 0 0 0
-0.148438 0.757812 0.757812 0 0 0
-0.523438 0.257812 0.601562 0 0 0
-0.148438 -0.242188 0.742188 0 0 0
-0.039062 0.257812 0.632812 0 0 0
0.710938 0.242188 0.289062 0 0 0
3 0 1 2
3 3 4 5
3 6 7 8
3 9 10 11
