ply
format ascii 1.0
element vertex 9
property float x
property float y
property float z
property uchar red
property uchar green
property uchar blue
element face 3
property list uchar uint vertex_indices
end_header
0.976562 -0.335938 0.585938 0 0 0
0.273438 0.742188 -0.320312 0 0 0
-0.085938 -0.070312 -0.585938 0 0 0
0.976562 0.414062 0.664062 0 0 0
-0.242188 0.507812 -0.726562 0 0 0
-0.632812 0.289062 0.257812 0 0 0
0.273438 -0.476562 0.914062 0 0 0
-0.070312 -0.367188 -0.476562 0 0 0
0.882812 0.070312 0.273438 0 0 0
3 0 1 2
3 3 4 5
3 6 7 8
