ply
format ascii 1.0
element vertex 21
property float x
property float y
property float z
property uchar red
property uchar green
property uchar blue
element face 7
property list uchar uint vertex_indices
end_header
-0.726562 0.820312 0.585938 0 0 0
0.867188 -0.085938 0.976562 0 0 0
-0.335938 0.710938 0.945312 0 0 0
0.351562 0.851562 -0.695312 0 0 0
-0.632812 0.867188 -0.945312 0 0 0
-0.085938 0.710938 0.507812 0 0 0
-0.039062 0.445312 0.601562 0 0 0
-0.992188 -0.273438 -0.492188 0 0 0
-0.632812 0.351562 0.710938 0 0 0
0.664062 0.523438 -0.460938 0 0 0
0.945312 -0.023438 -0.835938 0 0 0
-0.617188 0.101562 -0.945312 0 0 0
0.601562 0.101562 0.164062 0 0 0
-0.632812 0.085938 -0.726562 0 0 0
-0.210938 0.820312 0.414062 0 0 0
-0.273438 0.414062 -0.570312 0 0 0
-0.226562 0.085938 -0.070312 0 0 0
0.960938 -0.070312 -0.148438 0 0 0
0.101562 0.085938 -0.039062 0 0 0
-0.835938 -0.804688 -0.148438 0 0 0
-0.773438 -0.367188 0.820312 0 0 0
3 0 1 2
3 3 4 5
3 6 7 8
3 9 10 11
3 12 13 14
3 15 16 17
3 18 19 20
