ply
format ascii 1.0
element vertex 15
property float x
property float y
property float z
property uchar red
property uchar green
property uchar blue
element face 5
property list uchar uint vertex_indices
end_header
-0.132812 -0.039062 -0.976562 0 0 0
-0.789062 0.710938 -0.023438 0 0 0
-0.492188 -0.820312 -0.070312 0 0 0
0.289062 0.273438 0.976562 0 0 0
0.492188 0.382812 0.710938 0 0 0
0.867188 0.289062 -0.367188 0 0 0
-0.789062 0.445312 0.742188 0 0 0
-0.492188 -0.898438 -0.085938 0 0 0
0.070312 0.351562 -0.164062 0 0 0
1.007812 -0.820312 -0.164062 0 0 0
-0.148438 -0.617188 -0.664062 0 0 0
-0.617188 0.757812 0.242188 0 0 0
-0.617188 -0.492188 0.085938 0 0 0
-0.585938 0.601562 -0.179688 0 0 0
-0.117188 -0.085938 0.320312 0 0 0
3 0 1 2
3 3 4 5
3 6 7 8
3 9 10 11
3 12 13 14
