ply
format ascii 1.0
element vertex 18
property float x
property float y
property float z
property uchar red
property uchar green
property uchar blue
element face 6
property list uchar uint vertex_indices
end_header
-0.070312 -0.132812 0.664062 0 0 0
-0.148438 -0.992188 -0.492188 0 0 0
0.585938 -0.132812 -0.179688 0 0 0
-0.835938 0.070312 0.289062 0 0 0
-0.179688 -0.523438 -0.132812 0 0 0
0.867188 0.085938 0.492188 0 0 0
-0.148438 -0.179688 -0.164062 0 0 0
-0.085938 -0.085938 -0.882812 0 0 0
-0.164062 -0.335938 -0.164062 0 0 0
0.976562 0.976562 0.867188 0 0 0
-0.132812 0.601562 -0.945312 0 0 0
-0.664062 0.726562 -0.726562 0 0 0
-0.992188 0.695312 -0.367188 0 0 0
-0.039062 0.242188 1.007812 0 0 0
1.007812 -0.226562 -0.179688 0 0 0
0.085938 0.085938 -0.882812 0 0 0
-0.945312 0.601562 0.789062 0 0 0
0.945312 -0.335938 -0.617188 0 0 0
3 0 1 2
3 3 4 5
3 6 7 8
3 9 10 11
3 12 13 14
3 15 16 17
