ply
format ascii 1.0
element vertex 15
property float x
property float y
property float z
property uchar red
property uchar green
property uchar blue
element face 5
property list uchar uint vertex_indices
end_header
-0.945312 0.601562 0.601562 0 0 0
-0.039062 0.835938 0.460938 0 0 0
0.507812 -0.835938 0.867188 0 0 0
0.632812 0.476562 -0.617188 0 0 0
-0.335938 0.726562 0.414062 0 0 0
0.570312 0.492188 0.289062 0 0 0
0.664062 -0.273438 0.273438 0 0 0
0.085938 0.289062 -0.242188 0 0 0
-0.460938 0.070312 1.007812 0 0 0
-0.085938 -0.210938 -0.726562 0 0 0
-0.945312 0.742188 -0.164062 0 0 0
-0.945312 0.085938 -0.070312 0 0 0
-0.476562 -0.476562 -0.945312 0 0 0
-0.960938 -0.132812 -0.898438 0 0 0
-0.210938 0.945312 -0.507812 0 0 0
3 0 1 2
3 3 4 5
3 6 7 8
3 9 10 11
3 12 13 14
