ply
format ascii 1.0
element vertex 15
property float x
property float y
property float z
property uchar red
property uchar green
property uchar blue
element face 5
property list uchar uint vertex_indices
end_header
-0.835938 -0.882812 -0.242188 0 0 0
0.085938 -0.617188 -0.242188 0 0 0
-0.632812 -0.335938 0.820312 0 0 0
-0.882812 -0.476562 0.414062 0 0 0
-0.726562 -0.835938 -0.382812 0 0 0
-0.945312 -0.648438 0.289062 0 0 0
0.070312 -0.835938 0.070312 0 0 0
-0.726562 0.070312 -0.539062 0 0 0
0.601562 0.351562 0.601562 0 0 0
0.648438 0.789062 -0.335938 0 0 0
0.039062 0.945312 0.710938 0 0 0
-0.632812 -0.148438 -0.164062 0 0 0
0.257812 0.351562 0.742188 0 0 0
-0.382812 -0.648438 -0.929688 0 0 0
-0.210938 -0.726562 0.632812 0 0 0
3 0 1 2
3 3 4 5
3 6 7 8
3 9 10 11
3 12 13 14
