ply
format ascii 1.0
element vertex 15
property float x
property float y
property float z
property uchar red
property uchar green
property uchar blue
element face 5
property list uchar uint vertex_indices
end_header
-0.179688 -0.085938 0.632812 0 0 0
0.757812 0.820312 -0.085938 0 0 0
-0.085938 -0.945312 0.726562 0 0 0
0.632812 -0.179688 -0.632812 0 0 0
-0.539062 0.742188 0.710938 0 0 0
-0.335938 0.945312 -0.148438 0 0 0
0.273438 0.242188 -0.945312 0 0 0
0.632812 -0.773438 0.601562 0 0 0
0.867188 -0.554688 -0.367188 0 0 0
0.976562 0.851562 -0.273438 0 0 0
0.960938 0.492188 0.523438 0 0 0
0.429688 -0.070312 -0.664062 0 0 0
-0.992188 -0.492188 -0.289062 0 0 0
0.414062 0.492188 0.351562 0 0 0
-0.664062 0.085938 0.429688 0 0 0
3 0 1 2
3 3 4 5
3 6 7 8
3 9 10 11
3 12 13 14
