ply
format ascii 1.0
element vertex 9
property float x
property float y
property float z
property uchar red
property uchar green
property uchar blue
element face 3
property list uchar uint vertex_indices
end_header
0.054688 0.367188 0.789062 0 0 0
-0.945312 0.070312 0.085938 0 0 0
-0.367188 -0.945312 0.070312 0 0 0
0.351562 0.273438 -0.742188 0 0 0
0.632812 -0.804688 -0.617188 0 0 0
-0.554688 0.085938 -0.085938 0 0 0
0.070312 0.867188 -0.070312 0 0 0
-0.554688 0.601562 0.367188 0 0 0
-0.039062 0.289062 0.976562 0 0 0
3 0 1 2
3 3 4 5
3 6 7 8
