ply
format ascii 1.0
element vertex 12
property float x
property float y
property float z
property uchar red
property uchar green
property uchar blue
element face 4
property list uchar uint vertex_indices
end_header
0.320312 0.070312 -0.945312 0 0 0
0.351562 -0.445312 0.539062 0 0 0
0.867188 0.820312 -0.648438 0 0 0
-0.882812 -0.648438 -0.148438 0 0 0
-0.945312 0.585938 0.632812 0 0 0
-0.070312 -0.460938 -0.820312 0 0 0
-0.492188 0.976562 -0.367188 0 0 0
0.617188 0.242188 -0.117188 0 0 0
-0.179688 0.085938 -0.882812 0 0 0
0.085938 0.351562 -0.726562 0 0 0
0.242188 0.507812 -0.976562 0 0 0
0.273438 -0.789062 0.351562 0 0 0
3 0 1 2
3 3 4 5
3 6 7 8
3 9 10 11
