ply
format ascii 1.0
element vertex 12
property float x
property float y
property float z
property uchar red
property uchar green
property uchar blue
element face 4
property list uchar uint vertex_indices
end_header
0.414062 0.414062 -0.585938 0 0 0
-0.335938 -0.335938 -0.164062 0 0 0
0.070312 -0.460938 -0.617188 0 0 0
0.945312 -0.492188 0.710938 0 0 0
0.710938 -0.226562 0.835938 0 0 0
0.742188 0.742188 -0.132812 0 0 0
-0.085938 0.601562 -0.523438 0 0 0
0.710938 -0.367188 0.617188 0 0 0
0.117188 -0.273438 -0.320312 0 0 0
-0.992188 -0.242188 0.867188 0 0 0
-0.070312 -0.632812 0.742188 0 0 0
0.664062 -0.367188 -0.164062 0 0 0
3 0 1 2
3 3 4 5
3 6 7 8
3 9 10 11
