ply
format ascii 1.0
element vertex 18
property float x
property float y
property float z
property uchar red
property uchar green
property uchar blue
element face 6
property list uchar uint vertex_indices
end_header
0.585938 -0.742188 0.804688 0 0 0
-0.742188 0.820312 -0.085938 0 0 0
0.273438 0.289062 -0.085938 0 0 0
0.664062 0.085938 -0.742188 0 0 0
0.632812 0.289062 -0.882812 0 0 0
0.789062 -0.554688 0.945312 0 0 0
-0.382812 0.320312 -0.226562 0 0 0
-0.820312 0.242188 -0.617188 0 0 0
0.492188 -0.226562 0.632812 0 0 0
-0.382812 0.664062 0.414062 0 0 0
0.273438 0.867188 -0.148438 0 0 0
0.460938 0.085938 0.945312 0 0 0
0.039062 -0.085938 0.789062 0 0 0
0.085938 0.007812 0.632812 0 0 0
0.273438 0.804688 0.804688 0 0 0
-0.929688 0.242188 -0.085938 0 0 0
-0.085938 -0.367188 0.820312 0 0 0
0.632812 0.632812 -0.070312 0 0 0
3 0 1 2
3 3 4 5
3 6 7 8
3 9 10 11
3 12 13 14
3 15 16 17
