ply
format ascii 1.0
element vertex 12
property float x
property float y
property float z
property uchar red
property uchar green
property uchar blue
element face 4
property list uchar uint vertex_indices
end_header
-0.242188 -0.492188 -0.648438 0 0 0
0.351562 -0.617188 -0.335938 0 0 0
-0.148438 -0.648438 -0.320312 0 0 0
0.804688 0.945312 0.492188 0 0 0
-0.992188 -0.132812 0.273438 0 0 0
0.945312 0.617188 0.007812 0 0 0
-0.898438 -0.664062 -0.023438 0 0 0
0.976562 -0.367188 -0.710938 0 0 0
0.257812 0.601562 0.414062 0 0 0
-0.992188 -0.039062 -0.273438 0 0 0
-0.367188 0.867188 -0.632812 0 0 0
0.820312 0.414062 -0.132812 0 0 0
3 0 1 2
3 3 4 5
3 6 7 8
3 9 10 11
