ply
format ascii 1.0
element vertex 9
property float x
property float y
property float z
property uchar red
property uchar green
property uchar blue
element face 3
property list uchar uint vertex_indices
end_header
-0.085938 -0.976562 -0.148438 0 0 0
0.742188 0.351562 0.726562 0 0 0
0.648438 -0.164062 0.351562 0 0 0
-0.882812 0.273438 -0.132812 0 0 0
-0.898438 0.273438 -0.367188 0 0 0
0.867188 -0.726562 -0.210938 0 0 0
-0.132812 0.414062 0.664062 0 0 0
-0.554688 0.273438 0.867188 0 0 0
-0.226562 -0.617188 0.085938 0 0 0
3 0 1 2
3 3 4 5
3 6 7 8
