ply
format ascii 1.0
element vertex 12
property float x
property float y
property float z
property uchar red
property uchar green
property uchar blue
element face 4
property list uchar uint vertex_indices
end_header
-0.648438 0.257812 0.789062 0 0 0
-0.054688 0.242188 0.851562 0 0 0
0.351562 0.648438 0.085938 0 0 0
0.273438 0.976562 0.257812 0 0 0
0.070312 -0.367188 0.148438 0 0 0
0.867188 0.726562 -0.648438 0 0 0
0.492188 0.976562 -0.585938 0 0 0
-0.335938 -0.742188 -0.179688 0 0 0
0.382812 0.664062 0.085938 0 0 0
-0.898438 0.726562 0.382812 0 0 0
0.492188 0.742188 -0.164062 0 0 0
-0.742188 0.804688 0.070312 0 0 0
3 0 1 2
3 3 4 5
3 6 7 8
3 9 10 11
