ply
format ascii 1.0
element vertex 18
property float x
property float y
property float z
property uchar red
property uchar green
property uchar blue
element face 6
property list uchar uint vertex_indices
end_header
-0.085938 -0.226562 0.695312 0 0 0
-0.492188 0.351562 0.460938 0 0 0
-0.992188 0.398438 -0.726562 0 0 0
-0.476562 -0.226562 -0.945312 0 0 0
0.070312 -0.210938 -0.554688 0 0 0
-0.367188 -0.617188 -0.132812 0 0 0
0.664062 -0.945312 -0.664062 0 0 0
0.351562 -0.226562 0.945312 0 0 0
-0.164062 0.070312 0.804688 0 0 0
-0.992188 0.851562 0.976562 0 0 0
-0.617188 -0.554688 -0.773438 0 0 0
0.945312 -0.210938 -0.992188 0 0 0
-0.898438 0.507812 -0.070312 0 0 0
0.257812 0.085938 -0.882812 0 0 0
-0.492188 -0.367188 -0.210938 0 0 0
-0.429688 -0.210938 -0.304688 0 0 0
0.742188 -0.273438 0.945312 0 0 0
0.570312 -0.023438 -0.367188 0 0 0
3 0 1 2
3 3 4 5
3 6 7 8
3 9 10 11
3 12 13 14
3 15 16 17
