ply
format ascii 1.0
element vertex 15
property float x
property float y
property float z
property uchar red
property uchar green
property uchar blue
element face 5
property list uchar uint vertex_indices
end_header
-0.992188 0.664062 0.945312 0 0 0
0.382812 0.820312 -0.945312 0 0 0
-0.085938 -0.023438 -0.742188 0 0 0
-0.476562 -0.132812 -0.664062 0 0 0
-0.742188 -0.789062 -0.148438 0 0 0
-0.476562 -0.335938 0.507812 0 0 0
0.523438 0.617188 -0.132812 0 0 0
0.695312 0.289062 -0.664062 0 0 0
-0.304688 0.414062 -0.742188 0 0 0
0.507812 -0.742188 -0.523438 0 0 0
-0.648438 -0.367188 -0.554688 0 0 0
0.742188 -0.898438 -0.164062 0 0 0
-0.179688 0.804688 0.585938 0 0 0
0.742188 0.882812 0.273438 0 0 0
-0.179688 0.851562 -0.070312 0 0 0
3 0 1 2
3 3 4 5
3 6 7 8
3 9 10 11
3 12 13 14
