ply
format ascii 1.0
element vertex 9
property float x
property float y
property float z
property uchar red
property uchar green
property uchar blue
element face 3
property list uchar uint vertex_indices
end_header
-0.335938 -0.976562 0.742188 0 0 0
-0.335938 -0.492188 -0.835938 0 0 0
-0.945312 0.585938 0.585938 0 0 0
0.976562 0.257812 -0.226562 0 0 0
0.523438 0.414062 -0.132812 0 0 0
0.664062 -0.242188 -0.226562 0 0 0
-0.195312 -0.164062 -0.335938 0 0 0
0.351562 -0.460938 0.789062 0 0 0
0.257812 0.085938 0.085938 0 0 0
3 0 1 2
3 3 4 5
3 6 7 8
