ply
format ascii 1.0
element vertex 9
property float x
property float y
property float z
property uchar red
property uchar green
property uchar blue
element face 3
property list uchar uint vertex_indices
end_header
0.351562 0.242188 0.601562 0 0 0
0.742188 0.710938 0.632812 0 0 0
-0.085938 0.601562 0.492188 0 0 0
-0.742188 0.351562 -0.132812 0 0 0
0.070312 -0.554688 -0.554688 0 0 0
-0.835938 0.882812 -0.617188 0 0 0
0.695312 -0.945312 -0.164062 0 0 0
0.773438 -0.132812 -0.023438 0 0 0
-0.039062 -0.132812 -0.492188 0 0 0
3 0 1 2
3 3 4 5
3 6 7 8
