ply
format ascii 1.0
element vertex 12
property float x
property float y
property float z
property uchar red
property uchar green
property uchar blue
element face 4
property list uchar uint vertex_indices
end_header
-0.992188 -0.820312 -0.398438 0 0 0
0.070312 -0.742188 -0.210938 0 0 0
0.257812 -0.789062 -0.945312 0 0 0
0.070312 -0.367188 0.070312 0 0 0
0.070312 0.789062 -0.992188 0 0 0
0.070312 -0.945312 0.445312 0 0 0
0.851562 0.289062 -0.179688 0 0 0
-0.210938 0.414062 -0.335938 0 0 0
0.867188 0.945312 0.664062 0 0 0
0.414062 0.820312 -0.945312 0 0 0
0.273438 0.945312 -0.585938 0 0 0
-0.960938 -0.320312 0.976562 0 0 0
3 0 1 2
3 3 4 5
3 6 7 8
3 9 10 11
