ply
format ascii 1.0
element vertex 12
property float x
property float y
property float z
property uchar red
property uchar green
property uchar blue
element face 4
property list uchar uint vertex_indices
end_header
-0.085938 0.742188 0.257812 0 0 0
0.414062 -0.273438 0.945312 0 0 0
0.867188 -0.632812 0.882812 0 0 0
0.289062 0.085938 -0.085938 0 0 0
0.085938 -0.132812 0.789062 0 0 0
-0.132812 -0.945312 -0.523438 0 0 0
-0.523438 -0.523438 -0.273438 0 0 0
-0.085938 0.632812 0.085938 0 0 0
-0.632812 0.664062 0.257812 0 0 0
-0.367188 -0.132812 0.757812 0 0 0
0.257812 -0.070312 0.914062 0 0 0
-0.226562 -0.992188 -0.023438 0 0 0
3 0 1 2
3 3 4 5
3 6 7 8
3 9 10 11
