ply
format ascii 1.0
element vertex 15
property float x
property float y
property float z
property uchar red
property uchar green
property uchar blue
element face 5
property list uchar uint vertex_indices
end_header
0.820312 -0.226562 -0.382812 0 0 0
-0.273438 0.460938 0.945312 0 0 0
-0.789062 0.351562 -0.148438 0 0 0
0.882812 0.570312 -0.476562 0 0 0
-0.992188 0.085938 -0.210938 0 0 0
0.945312 -0.210938 -0.820312 0 0 0
0.710938 0.742188 -0.085938 0 0 0
-0.320312 -0.726562 0.539062 0 0 0
0.601562 0.726562 -0.023438 0 0 0
0.710938 -0.492188 -0.257812 0 0 0
-0.085938 -0.992188 0.976562 0 0 0
0.085938 -0.273438 -0.632812 0 0 0
-0.273438 0.742188 -0.523438 0 0 0
0.742188 -0.632812 0.351562 0 0 0
-0.539062 -0.085938 -0.273438 0 0 0
3 0 1 2
3 3 4 5
3 6 7 8
3 9 10 11
3 12 13 14
