ply
format ascii 1.0
element vertex 15
property float x
property float y
property float z
property uchar red
property uchar green
property uchar blue
element face 5
property list uchar uint vertex_indices
end_header
0.945312 -0.742188 0.351562 0 0 0
0.085938 0.351562 0.070312 0 0 0
-0.585938 0.085938 0.882812 0 0 0
-0.492188 -0.085938 0.664062 0 0 0
0.945312 -0.992188 0.648438 0 0 0
-0.601562 -0.945312 0.492188 0 0 0
-0.460938 0.601562 -0.664062 0 0 0
0.085938 -0.460938 0.664062 0 0 0
0.835938 -0.023438 0.773438 0 0 0
0.070312 -0.164062 0.085938 0 0 0
-0.570312 -0.054688 0.914062 0 0 0
-0.210938 -0.242188 0.351562 0 0 0
-0.992188 0.664062 -0.976562 0 0 0
-0.382812 0.726562 -0.257812 0 0 0
-0.070312 0.742188 0.085938 0 0 0
3 0 1 2
3 3 4 5
3 6 7 8
3 9 10 11
3 12 13 14
