ply
format ascii 1.0
element vertex 15
property float x
property float y
property float z
property uchar red
property uchar green
property uchar blue
element face 5
property list uchar uint vertex_indices
end_header
-0.632812 -0.476562 -0.273438 0 0 0
0.757812 0.710938 0.710938 0 0 0
0.710938 -0.226562 0.632812 0 0 0
-0.992188 -0.070312 0.414062 0 0 0
0.601562 -0.726562 -0.726562 0 0 0
-0.179688 -0.273438 -0.523438 0 0 0
-0.164062 -0.257812 0.710938 0 0 0
-0.992188 -0.070312 -0.664062 0 0 0
-0.273438 0.867188 -0.664062 0 0 0
0.273438 -0.148438 0.460938 0 0 0
-0.039062 -0.726562 0.585938 0 0 0
0.867188 0.414062 -0.023438 0 0 0
0.242188 0.492188 1.007812 0 0 0
-0.335938 -0.664062 0.085938 0 0 0
0.710938 0.085938 0.851562 0 0 0
3 0 1 2
3 3 4 5
3 6 7 8
3 9 10 11
3 12 13 14
