ply
format ascii 1.0
element vertex 9
property float x
property float y
property float z
property uchar red
property uchar green
property uchar blue
element face 3
property list uchar uint vertex_indices
end_header
0.742188 -0.179688 -0.945312 0 0 0
0.320312 0.460938 0.710938 0 0 0
-0.492188 -0.367188 -0.179688 0 0 0
0.085938 -0.132812 -0.367188 0 0 0
0.742188 -0.335938 -0.617188 0 0 0
-0.335938 0.273438 0.414062 0 0 0
-0.210938 0.710938 -0.164062 0 0 0
0.085938 0.070312 -0.945312 0 0 0
0.726562 -0.335938 -0.148438 0 0 0
3 0 1 2
3 3 4 5
3 6 7 8
