ply
format ascii 1.0
element vertex 9
property float x
property float y
property float z
property uchar red
property uchar green
property uchar blue
element face 3
property list uchar uint vertex_indices
end_header
0.070312 -0.226562 -0.242188 0 0 0
-0.085938 0.085938 -0.992188 0 0 0
0.710938 0.289062 -0.070312 0 0 0
-0.664062 -0.664062 0.601562 0 0 0
-0.070312 -0.945312 0.039062 0 0 0
-0.945312 0.539062 0.070312 0 0 0
-0.164062 0.273438 0.804688 0 0 0
0.351562 -0.617188 0.726562 0 0 0
-0.617188 1.007812 0.867188 0 0 0
3 0 1 2
3 3 4 5
3 6 7 8
