ply
format ascii 1.0
element vertex 30
property float x
property float y
property float z
property uchar red
property uchar green
property uchar blue
element face 10
property list uchar uint vertex_indices
end_header
0.789062 0.585938 -0.992188 0 0 0
-0.992188 -0.179688 0.851562 0 0 0
0.867188 0.664062 0.289062 0 0 0
0.945312 -0.492188 -0.945312 0 0 0
-0.085938 0.492188 -0.601562 0 0 0
-0.085938 -0.632812 -0.054688 0 0 0
-0.523438 -0.476562 -0.601562 0 0 0
-0.367188 -0.492188 -0.710938 0 0 0
0.289062 -0.648438 -0.882812 0 0 0
-0.476562 0.085938 0.664062 0 0 0
-0.726562 0.414062 -0.148438 0 0 0
0.257812 0.695312 0.460938 0 0 0
0.460938 -0.085938 -0.257812 0 0 0
-0.070312 0.617188 -0.492188 0 0 0
-0.132812 0.117188 0.414062 0 0 0
0.804688 -0.476562 -0.179688 0 0 0
-0.179688 -0.726562 0.835938 0 0 0
0.414062 0.742188 -0.710938 0 0 0
-0.492188 -0.992188 0.632812 0 0 0
-0.039062 0.460938 -0.085938 0 0 0
-0.460938 0.664062 -0.960938 0 0 0
0.882812 -0.320312 -0.367188 0 0 0
-0.210938 0.054688 0.789062 0 0 0
0.789062 -0.117188 -0.210938 0 0 0
-0.210938 0.070312 0.085938 0 0 0
0.492188 0.414062 0.273438 0 0 0
0.085938 -0.398438 -0.992188 0 0 0
0.726562 -0.539062 -0.460938 0 0 0
-0.601562 0.570312 -0.773438 0 0 0
0.023438 -0.492188 -0.070312 0 0 0
3 0 1 2
3 3 4 5
3 6 7 8
3 9 10 11
3 12 13 14
3 15 16 17
3 18 19 20
3 21 22 23
3 24 25 26
3 27 28 29
