ply
format ascii 1.0
element vertex 9
property float x
property float y
property float z
property uchar red
property uchar green
property uchar blue
element face 3
property list uchar uint vertex_indices
end_header
-0.242188 -0.992188 -0.992188 0 0 0
0.460938 -0.726562 -0.585938 0 0 0
-0.242188 -0.226562 0.773438 0 0 0
-0.382812 -0.210938 0.445312 0 0 0
-0.726562 0.789062 0.976562 0 0 0
-0.070312 0.976562 0.289062 0 0 0
-0.164062 -0.523438 0.632812 0 0 0
0.445312 -0.539062 0.195312 0 0 0
-0.226562 -0.132812 0.085938 0 0 0
3 0 1 2
3 3 4 5
3 6 7 8
