ply
format ascii 1.0
element vertex 12
property float x
property float y
property float z
property uchar red
property uchar green
property uchar blue
element face 4
property list uchar uint vertex_indices
end_header
0.804688 0.851562 -0.226562 0 0 0
-0.210938 -0.476562 0.867188 0 0 0
0.351562 0.945312 0.570312 0 0 0
0.820312 -0.507812 -0.492188 0 0 0
-0.164062 -0.070312 0.664062 0 0 0
0.664062 -0.960938 0.710938 0 0 0
0.945312 0.601562 0.351562 0 0 0
-0.804688 -0.492188 0.976562 0 0 0
-0.273438 -0.476562 0.242188 0 0 0
0.382812 -0.179688 0.273438 0 0 0
0.882812 -0.226562 -0.320312 0 0 0
0.289062 -0.101562 0.851562 0 0 0
3 0 1 2
3 3 4 5
3 6 7 8
3 9 10 11
