ply
format ascii 1.0
element vertex 12
property float x
property float y
property float z
property uchar red
property uchar green
property uchar blue
element face 4
property list uchar uint vertex_indices
end_header
0.976562 0.632812 -0.976562 0 0 0
0.242188 -0.242188 0.632812 0 0 0
0.085938 0.632812 0.976562 0 0 0
0.960938 0.617188 0.601562 0 0 0
-0.914062 0.742188 0.257812 0 0 0
0.976562 -0.148438 -0.539062 0 0 0
-0.617188 0.664062 0.257812 0 0 0
-0.617188 -0.617188 1.007812 0 0 0
0.820312 -0.945312 -0.914062 0 0 0
0.664062 -0.632812 -0.992188 0 0 0
0.664062 0.289062 -0.742188 0 0 0
-0.976562 0.742188 0.179688 0 0 0
3 0 1 2
3 3 4 5
3 6 7 8
3 9 10 11
