ply
format ascii 1.0
element vertex 9
property float x
property float y
property float z
property uchar red
property uchar green
property uchar blue
element face 3
property list uchar uint vertex_indices
end_header
-0.039062 -0.726562 0.257812 0 0 0
0.820312 -0.023438 0.460938 0 0 0
0.460938 1.007812 0.523438 0 0 0
-0.523438 -0.226562 0.820312 0 0 0
0.632812 -0.632812 0.445312 0 0 0
0.710938 0.085938 0.570312 0 0 0
-0.226562 -0.070312 -0.742188 0 0 0
-0.820312 0.289062 -0.117188 0 0 0
0.242188 0.085938 0.273438 0 0 0
3 0 1 2
3 3 4 5
3 6 7 8
