ply
format ascii 1.0
element vertex 9
property float x
property float y
property float z
property uchar red
property uchar green
property uchar blue
element face 3
property list uchar uint vertex_indices
end_header
-0.820312 -0.398438 -0.023438 0 0 0
-0.507812 -0.398438 -0.820312 0 0 0
0.617188 0.414062 0.976562 0 0 0
-0.789062 -0.992188 -0.460938 0 0 0
0.992188 0.460938 0.289062 0 0 0
-0.742188 -0.179688 0.257812 0 0 0
-0.164062 -0.507812 -0.492188 0 0 0
-0.179688 0.054688 -0.273438 0 0 0
0.351562 -0.148438 0.742188 0 0 0
3 0 1 2
3 3 4 5
3 6 7 8
