ply
format ascii 1.0
element vertex 9
property float x
property float y
property float z
property uchar red
property uchar green
property uchar blue
element face 3
property list uchar uint vertex_indices
end_header
-0.492188 -0.335938 -0.132812 0 0 0
-0.648438 -0.945312 0.710938 0 0 0
0.664062 -0.132812 0.867188 0 0 0
0.867188 0.601562 0.835938 0 0 0
-0.914062 0.851562 -0.320312 0 0 0
-0.648438 0.585938 0.664062 0 0 0
-0.164062 -0.148438 0.570312 0 0 0
0.695312 -0.820312 -0.132812 0 0 0
0.507812 -0.851562 -0.460938 0 0 0
3 0 1 2
3 3 4 5
3 6 7 8
