ply
format ascii 1.0
element vertex 12
property float x
property float y
property float z
property uchar red
property uchar green
property uchar blue
element face 4
property list uchar uint vertex_indices
end_header
-0.335938 0.414062 0.710938 0 0 0
0.726562 -0.742188 -0.617188 0 0 0
-0.085938 -0.523438 0.601562 0 0 0
0.710938 0.054688 -0.945312 0 0 0
-0.664062 -0.976562 0.617188 0 0 0
-0.664062 -0.085938 0.007812 0 0 0
-0.039062 0.617188 -0.273438 0 0 0
-0.742188 -0.070312 -0.742188 0 0 0
-0.164062 0.882812 -0.726562 0 0 0
0.632812 -0.085938 0.851562 0 0 0
0.492188 0.710938 -0.445312 0 0 0
0.085938 -0.632812 -0.367188 0 0 0
3 0 1 2
3 3 4 5
3 6 7 8
3 9 10 11
