ply
format ascii 1.0
element vertex 9
property float x
property float y
property float z
property uchar red
property uchar green
property uchar blue
element face 3
property list uchar uint vertex_indices
end_header
-0.460938 -0.507812 -0.710938 0 0 0
-0.601562 0.492188 -0.820312 0 0 0
-0.414062 0.851562 0.242188 0 0 0
0.789062 0.960938 -0.335938 0 0 0
0.789062 0.835938 -0.289062 0 0 0
0.882812 -0.507812 -0.617188 0 0 0
0.226562 0.960938 -0.335938 0 0 0
-0.492188 -0.476562 -0.617188 0 0 0
0.304688 -0.960938 -0.039062 0 0 0
3 0 1 2
3 3 4 5
3 6 7 8
