ply
format ascii 1.0
element vertex 18
property float x
property float y
property float z
property uchar red
property uchar green
property uchar blue
element face 6
property list uchar uint vertex_indices
end_header
-0.976562 0.007812 0.148438 0 0 0
-0.742188 -0.742188 0.398438 0 0 0
0.617188 0.351562 -0.398438 0 0 0
-0.773438 0.367188 -0.335938 0 0 0
0.867188 0.742188 -0.617188 0 0 0
0.164062 -0.007812 -0.007812 0 0 0
0.679688 -0.679688 -0.773438 0 0 0
-0.148438 -0.148438 -0.601562 0 0 0
-0.648438 0.117188 0.820312 0 0 0
0.820312 0.257812 0.976562 0 0 0
0.882812 -0.429688 -0.398438 0 0 0
-0.335938 0.648438 0.039062 0 0 0
-0.414062 0.695312 -0.492188 0 0 0
0.070312 -0.804688 -0.789062 0 0 0
0.867188 0.648438 1.039062 0 0 0
0.867188 0.695312 0.742188 0 0 0
0.835938 0.273438 -0.789062 0 0 0
0.914062 -0.757812 -0.460938 0 0 0
3 0 1 2
3 3 4 5
3 6 7 8
3 9 10 11
3 12 13 14
3 15 16 17
