ply
format ascii 1.0
element vertex 12
property float x
property float y
property float z
property uchar red
property uchar green
property uchar blue
element face 4
property list uchar uint vertex_indices
end_header
-0.164062 0.867188 0.710938 0 0 0
-0.851562 1.007812 -0.632812 0 0 0
0.039062 -0.304688 0.757812 0 0 0
-0.007812 0.585938 0.351562 0 0 0
-0.101562 -0.710938 0.742188 0 0 0
-0.773438 0.742188 -0.398438 0 0 0
-0.039062 -0.804688 0.992188 0 0 0
-0.007812 -0.742188 0.382812 0 0 0
-0.960938 0.757812 -0.976562 0 0 0
-0.164062 0.289062 -0.992188 0 0 0
-0.945312 0.492188 0.742188 0 0 0
0.429688 -0.335938 0.914062 0 0 0
3 0 1 2
3 3 4 5
3 6 7 8
3 9 10 11
