ply
format ascii 1.0
element vertex 15
property float x
property float y
property float z
property uchar red
property uchar green
property uchar blue
element face 5
property list uchar uint vertex_indices
end_header
-0.039062 0.101562 0.960938 0 0 0
-0.773438 0.851562 -0.492188 0 0 0
-0.007812 0.382812 -0.210938 0 0 0
-0.960938 0.960938 0.554688 0 0 0
0.492188 -0.492188 0.195312 0 0 0
0.164062 -0.523438 0.226562 0 0 0
0.039062 -0.960938 -0.398438 0 0 0
0.351562 0.882812 0.226562 0 0 0
-0.664062 0.867188 -0.398438 0 0 0
-0.789062 0.007812 -0.164062 0 0 0
-0.070312 0.882812 -0.117188 0 0 0
0.570312 -0.648438 -0.382812 0 0 0
0.367188 -0.710938 0.679688 0 0 0
0.820312 0.132812 -0.835938 0 0 0
-0.664062 -0.804688 -0.335938 0 0 0
3 0 1 2
3 3 4 5
3 6 7 8
3 9 10 11
3 12 13 14
