ply
format ascii 1.0
element vertex 597
property float x
property float y
property float z
property uchar red
property uchar green
property uchar blue
element face 199
property list uchar uint vertex_indices
end_header
0.882812 0.007812 1.039062 0 0 0
-0.179688 -0.195312 0.367188 0 0 0
0.039062 0.695312 -0.710938 0 0 0
-0.132812 -0.382812 0.132812 0 0 0
-0.648438 0.476562 -0.007812 0 0 0
0.492188 0.742188 0.742188 0 0 0
-0.226562 0.367188 -0.210938 0 0 0
0.617188 0.882812 0.179688 0 0 0
0.851562 -0.554688 0.226562 0 0 0
-0.867188 -0.710938 -0.914062 0 0 0
-0.742188 0.414062 -0.601562 0 0 0
0.882812 0.054688 0.632812 0 0 0
0.867188 0.210938 -0.710938 0 0 0
0.960938 0.726562 0.367188 0 0 0
0.773438 0.414062 0.476562 0 0 0
0.882812 0.367188 0.742188 0 0 0
-0.414062 -0.429688 -0.492188 0 0 0
0.210938 -0.507812 -0.492188 0 0 0
0.929688 -0.882812 -0.492188 0 0 0
0.039062 0.726562 0.039062 0 0 0
-0.226562 0.179688 0.382812 0 0 0
0.617188 -0.382812 0.195312 0 0 0
0.679688 -0.945312 -0.789062 0 0 0
0.429688 0.695312 0.023438 0 0 0
-0.070312 0.273438 -0.914062 0 0 0
0.929688 0.335938 1.007812 0 0 0
0.820312 0.648438 -0.398438 0 0 0
0.429688 0.398438 -0.601562 0 0 0
-0.382812 0.101562 0.023438 0 0 0
0.429688 0.289062 0.992188 0 0 0
-0.414062 0.335938 -0.460938 0 0 0
0.492188 0.414062 -0.023438 0 0 0
0.054688 -0.960938 -0.039062 0 0 0
0.210938 -0.632812 -0.007812 0 0 0
-0.804688 -0.648438 -0.789062 0 0 0
0.648438 0.726562 0.382812 0 0 0
0.726562 -0.335938 0.945312 0 0 0
0.851562 0.257812 0.851562 0 0 0
-0.601562 0.757812 -0.148438 0 0 0
-0.460938 0.882812 1.007812 0 0 0
0.273438 -0.335938 0.148438 0 0 0
0.820312 0.070312 0.601562 0 0 0
-0.867188 -0.507812 0.929688 0 0 0
-0.070312 0.976562 -0.335938 0 0 0
0.882812 0.648438 -0.976562 0 0 0
0.820312 -0.804688 0.242188 0 0 0
0.429688 -0.507812 -0.992188 0 0 0
0.492188 0.726562 -0.929688 0 0 0
0.273438 0.132812 0.164062 0 0 0
0.804688 0.101562 0.382812 0 0 0
0.726562 0.289062 -0.632812 0 0 0
0.023438 -0.429688 -0.585938 0 0 0
-0.617188 -0.429688 0.742188 0 0 0
0.648438 0.382812 -0.976562 0 0 0
-0.976562 -0.429688 -0.617188 0 0 0
-0.414062 0.007812 0.023438 0 0 0
0.023438 0.726562 0.742188 0 0 0
0.679688 0.851562 -0.773438 0 0 0
-0.132812 0.695312 -0.570312 0 0 0
-0.023438 -0.445312 0.367188 0 0 0
0.117188 -0.507812 -0.007812 0 0 0
-0.179688 -0.148438 -0.914062 0 0 0
-0.007812 -0.148438 0.914062 0 0 0
0.867188 -0.507812 0.382812 0 0 0
0.132812 -0.226562 0.023438 0 0 0
-0.726562 0.695312 -0.007812 0 0 0
0.570312 -0.304688 0.742188 0 0 0
-0.601562 -0.492188 0.742188 0 0 0
0.929688 -0.679688 -0.335938 0 0 0
0.320312 0.460938 0.382812 0 0 0
0.054688 0.835938 -0.570312 0 0 0
-0.023438 -0.070312 -0.257812 0 0 0
0.679688 0.273438 1.007812 0 0 0
-0.867188 0.914062 0.039062 0 0 0
-0.164062 -0.023438 0.164062 0 0 0
0.492188 -0.632812 -0.320312 0 0 0
-0.210938 0.742188 -0.992188 0 0 0
-0.664062 -0.367188 -0.570312 0 0 0
0.164062 0.757812 -0.679688 0 0 0
-0.039062 -0.429688 -0.007812 0 0 0
1.039062 -0.554688 -0.914062 0 0 0
0.492188 0.992188 -0.148438 0 0 0
0.320312 -0.429688 1.039062 0 0 0
0.789062 -0.960938 -0.460938 0 0 0
0.039062 0.210938 -0.492188 0 0 0
0.320312 0.054688 -0.554688 0 0 0
0.367188 -0.601562 -0.335938 0 0 0
-0.960938 0.757812 -0.007812 0 0 0
0.320312 0.398438 -0.789062 0 0 0
-0.210938 0.179688 -0.398438 0 0 0
0.210938 0.585938 0.945312 0 0 0
0.351562 0.007812 1.007812 0 0 0
0.429688 0.445312 -0.398438 0 0 0
0.929688 -0.367188 0.273438 0 0 0
0.929688 0.054688 -0.335938 0 0 0
0.820312 -0.164062 0.351562 0 0 0
-0.070312 -0.429688 -0.992188 0 0 0
-0.945312 -0.460938 -0.773438 0 0 0
0.617188 0.867188 0.929688 0 0 0
0.773438 -0.851562 -0.382812 0 0 0
0.351562 0.648438 0.023438 0 0 0
0.148438 0.117188 0.601562 0 0 0
0.429688 0.304688 -0.914062 0 0 0
0.492188 0.335938 1.007812 0 0 0
-0.570312 0.882812 0.914062 0 0 0
0.320312 0.648438 -0.460938 0 0 0
0.851562 -0.492188 -0.398438 0 0 0
0.601562 0.023438 -0.773438 0 0 0
0.773438 0.054688 0.742188 0 0 0
-0.726562 0.695312 0.710938 0 0 0
0.210938 0.335938 0.789062 0 0 0
0.023438 0.882812 0.554688 0 0 0
0.679688 0.898438 0.742188 0 0 0
0.054688 0.382812 -0.335938 0 0 0
-0.007812 -0.710938 0.085938 0 0 0
0.164062 -0.070312 -0.039062 0 0 0
-0.023438 -0.382812 0.351562 0 0 0
0.023438 0.117188 -0.976562 0 0 0
0.804688 0.742188 0.023438 0 0 0
0.726562 -0.757812 -0.992188 0 0 0
0.320312 0.570312 0.914062 0 0 0
-0.070312 0.648438 -0.460938 0 0 0
-0.804688 0.960938 0.539062 0 0 0
0.851562 -0.507812 -0.335938 0 0 0
0.039062 0.867188 -0.382812 0 0 0
0.914062 -0.601562 -0.460938 0 0 0
0.929688 -0.070312 0.570312 0 0 0
0.867188 0.648438 -0.023438 0 0 0
0.210938 -0.507812 1.007812 0 0 0
0.507812 -0.382812 -0.523438 0 0 0
0.289062 0.851562 -0.023438 0 0 0
0.773438 -0.070312 -0.820312 0 0 0
-0.460938 -0.804688 -0.039062 0 0 0
0.914062 0.757812 -0.695312 0 0 0
-0.804688 -0.507812 0.820312 0 0 0
-0.601562 -0.273438 0.867188 0 0 0
-0.007812 0.414062 0.539062 0 0 0
-0.398438 0.882812 0.601562 0 0 0
0.914062 0.335938 -0.585938 0 0 0
0.820312 0.648438 -0.039062 0 0 0
-0.601562 -0.039062 0.945312 0 0 0
-0.414062 0.648438 0.445312 0 0 0
-0.726562 0.960938 -0.757812 0 0 0
-0.867188 0.335938 -0.289062 0 0 0
0.492188 -0.507812 -0.460938 0 0 0
-0.257812 0.757812 0.976562 0 0 0
-0.414062 -0.148438 -0.976562 0 0 0
-0.726562 0.757812 0.273438 0 0 0
-0.773438 -0.164062 -0.976562 0 0 0
0.429688 -0.429688 0.148438 0 0 0
0.148438 -0.507812 0.914062 0 0 0
0.085938 0.132812 -0.164062 0 0 0
-0.960938 -0.804688 -0.335938 0 0 0
-0.085938 0.070312 1.007812 0 0 0
0.195312 0.648438 -0.585938 0 0 0
-0.257812 -0.960938 -0.804688 0 0 0
-0.242188 0.867188 0.742188 0 0 0
0.351562 -0.132812 -0.148438 0 0 0
-0.789062 0.726562 -0.085938 0 0 0
-0.070312 0.101562 -0.789062 0 0 0
0.570312 -0.382812 -0.789062 0 0 0
-0.382812 -0.007812 -0.382812 0 0 0
0.773438 0.851562 0.945312 0 0 0
0.914062 0.476562 -0.585938 0 0 0
-0.148438 0.757812 0.476562 0 0 0
-0.382812 -0.492188 -0.007812 0 0 0
0.929688 0.242188 -0.507812 0 0 0
0.523438 -0.710938 -0.882812 0 0 0
0.429688 0.867188 0.742188 0 0 0
-0.414062 -0.398438 -0.023438 0 0 0
-0.039062 -0.070312 0.789062 0 0 0
0.210938 0.445312 0.632812 0 0 0
0.820312 0.898438 -0.460938 0 0 0
-0.960938 0.414062 0.757812 0 0 0
0.679688 0.367188 -0.007812 0 0 0
0.820312 -0.507812 -0.804688 0 0 0
-0.742188 0.132812 -0.679688 0 0 0
0.914062 0.398438 -0.914062 0 0 0
0.023438 -0.460938 0.554688 0 0 0
0.804688 0.257812 -0.695312 0 0 0
0.164062 0.054688 -0.601562 0 0 0
0.210938 -0.710938 1.007812 0 0 0
0.914062 0.054688 0.710938 0 0 0
0.882812 0.117188 -0.007812 0 0 0
0.914062 -0.054688 0.742188 0 0 0
-0.039062 -0.507812 0.257812 0 0 0
0.820312 -0.039062 -0.914062 0 0 0
0.648438 0.210938 -0.882812 0 0 0
-0.867188 0.507812 0.617188 0 0 0
0.929688 -0.710938 -0.914062 0 0 0
-0.867188 0.726562 -0.382812 0 0 0
0.867188 -0.648438 0.023438 0 0 0
-0.617188 -0.710938 -0.804688 0 0 0
0.867188 -0.507812 -0.460938 0 0 0
-0.773438 -0.507812 -0.695312 0 0 0
0.539062 -0.054688 -0.257812 0 0 0
0.492188 0.132812 0.554688 0 0 0
-0.382812 0.179688 0.257812 0 0 0
0.773438 0.289062 0.023438 0 0 0
0.914062 -0.445312 1.007812 0 0 0
0.851562 0.664062 0.523438 0 0 0
-0.179688 0.398438 -0.835938 0 0 0
0.039062 -0.882812 -0.554688 0 0 0
-0.601562 0.382812 0.382812 0 0 0
-0.414062 0.617188 0.601562 0 0 0
-0.257812 0.648438 -0.492188 0 0 0
0.617188 0.726562 -0.914062 0 0 0
-0.617188 0.460938 0.023438 0 0 0
0.210938 0.695312 0.132812 0 0 0
0.429688 -0.429688 -0.773438 0 0 0
-0.617188 0.429688 0.382812 0 0 0
-0.742188 0.382812 -0.710938 0 0 0
-0.414062 0.867188 1.007812 0 0 0
0.492188 0.054688 -0.976562 0 0 0
-0.070312 0.039062 -0.117188 0 0 0
0.617188 -0.507812 -0.773438 0 0 0
-0.601562 0.414062 -0.492188 0 0 0
0.773438 -0.679688 0.742188 0 0 0
0.929688 0.960938 0.039062 0 0 0
-0.101562 -0.507812 0.742188 0 0 0
-0.945312 -0.960938 0.023438 0 0 0
0.304688 -0.164062 0.679688 0 0 0
0.039062 -0.164062 -0.007812 0 0 0
0.867188 -0.507812 0.742188 0 0 0
0.164062 0.726562 -0.039062 0 0 0
0.851562 -0.226562 -0.335938 0 0 0
-0.773438 0.179688 -0.992188 0 0 0
0.851562 0.007812 -0.820312 0 0 0
0.039062 -0.710938 -0.585938 0 0 0
0.351562 -0.976562 0.039062 0 0 0
0.054688 0.695312 0.304688 0 0 0
0.023438 0.117188 -0.757812 0 0 0
-0.382812 -0.632812 0.039062 0 0 0
0.492188 0.539062 -0.570312 0 0 0
-0.039062 0.835938 0.539062 0 0 0
0.929688 0.679688 0.023438 0 0 0
-0.804688 -0.226562 0.554688 0 0 0
-0.617188 -0.710938 -0.789062 0 0 0
0.210938 0.210938 -0.398438 0 0 0
-0.617188 -0.632812 0.023438 0 0 0
0.929688 -0.335938 0.304688 0 0 0
0.679688 1.007812 -0.085938 0 0 0
-0.117188 0.992188 -0.460938 0 0 0
0.039062 0.585938 0.914062 0 0 0
0.023438 -0.429688 -0.789062 0 0 0
0.148438 -0.382812 -0.007812 0 0 0
-0.070312 0.648438 0.757812 0 0 0
0.492188 0.289062 -0.335938 0 0 0
0.914062 0.367188 -0.554688 0 0 0
-0.789062 0.007812 -0.335938 0 0 0
-0.648438 0.835938 -0.789062 0 0 0
-0.226562 0.335938 -0.335938 0 0 0
-0.867188 0.867188 0.960938 0 0 0
-0.773438 -0.507812 -0.007812 0 0 0
0.523438 0.398438 1.039062 0 0 0
-0.414062 -0.710938 -0.976562 0 0 0
-0.601562 0.382812 -0.742188 0 0 0
-0.164062 0.617188 -0.382812 0 0 0
-0.851562 -0.804688 -0.164062 0 0 0
-0.945312 0.648438 0.382812 0 0 0
-0.726562 0.398438 -0.164062 0 0 0
0.429688 -0.195312 0.148438 0 0 0
0.617188 -0.476562 -0.914062 0 0 0
0.164062 -0.492188 0.757812 0 0 0
0.523438 -0.382812 0.523438 0 0 0
-0.210938 0.960938 0.820312 0 0 0
-0.070312 -0.882812 0.976562 0 0 0
0.492188 -0.476562 0.742188 0 0 0
-0.226562 -0.632812 -0.992188 0 0 0
0.085938 -0.429688 0.710938 0 0 0
-0.117188 -0.960938 -0.789062 0 0 0
0.929688 0.960938 -0.398438 0 0 0
-0.617188 0.867188 0.523438 0 0 0
0.492188 0.132812 0.570312 0 0 0
0.851562 -0.070312 -0.835938 0 0 0
-0.726562 -0.601562 -0.835938 0 0 0
0.679688 0.007812 0.132812 0 0 0
-0.023438 -0.804688 -0.789062 0 0 0
-0.773438 -0.679688 -0.460938 0 0 0
0.273438 0.007812 -0.210938 0 0 0
-0.992188 -0.429688 -0.492188 0 0 0
0.882812 0.273438 0.351562 0 0 0
0.570312 0.867188 0.914062 0 0 0
0.835938 -0.382812 0.023438 0 0 0
-0.164062 -0.804688 -0.507812 0 0 0
-0.664062 -0.492188 -0.992188 0 0 0
-0.117188 -0.382812 0.960938 0 0 0
0.367188 0.398438 -0.460938 0 0 0
0.367188 -0.601562 -0.617188 0 0 0
0.773438 -0.429688 -0.460938 0 0 0
-0.664062 0.335938 0.851562 0 0 0
-0.617188 -0.148438 -0.335938 0 0 0
0.429688 0.554688 -0.617188 0 0 0
-0.007812 0.382812 0.335938 0 0 0
0.726562 -0.523438 -0.460938 0 0 0
-0.757812 -0.804688 -0.273438 0 0 0
0.148438 0.023438 0.382812 0 0 0
-0.648438 -0.507812 0.757812 0 0 0
0.351562 0.679688 -0.617188 0 0 0
0.820312 0.867188 -0.382812 0 0 0
0.914062 0.460938 0.132812 0 0 0
0.164062 0.179688 -0.695312 0 0 0
-0.617188 -0.132812 0.945312 0 0 0
0.023438 0.023438 -0.289062 0 0 0
-0.601562 -0.648438 0.742188 0 0 0
0.882812 0.476562 0.945312 0 0 0
-0.773438 0.898438 -0.320312 0 0 0
0.898438 -0.648438 -0.007812 0 0 0
-0.007812 0.257812 -0.382812 0 0 0
0.492188 0.960938 0.101562 0 0 0
0.664062 0.695312 0.554688 0 0 0
-0.117188 -0.445312 0.023438 0 0 0
-0.070312 0.835938 -0.398438 0 0 0
-0.914062 -0.523438 -0.976562 0 0 0
-0.601562 0.398438 0.023438 0 0 0
0.804688 -0.804688 -0.367188 0 0 0
0.320312 -0.429688 -0.460938 0 0 0
-0.773438 -0.960938 -0.007812 0 0 0
0.351562 0.632812 0.945312 0 0 0
0.820312 -0.382812 -0.976562 0 0 0
-0.554688 -0.070312 -0.773438 0 0 0
0.679688 -0.601562 -0.257812 0 0 0
0.820312 -0.492188 -0.382812 0 0 0
0.492188 -0.804688 0.164062 0 0 0
-0.945312 0.335938 -0.804688 0 0 0
0.429688 0.210938 0.789062 0 0 0
-0.789062 -0.382812 0.539062 0 0 0
0.820312 0.132812 0.554688 0 0 0
0.039062 0.335938 -0.085938 0 0 0
-0.164062 -0.164062 -0.023438 0 0 0
0.726562 -0.507812 0.742188 0 0 0
-0.945312 0.398438 0.382812 0 0 0
0.117188 0.648438 -0.632812 0 0 0
0.773438 0.179688 -0.023438 0 0 0
-0.351562 -0.382812 -0.570312 0 0 0
-0.726562 -0.648438 0.148438 0 0 0
0.726562 -0.070312 0.757812 0 0 0
0.820312 0.414062 -0.335938 0 0 0
-0.945312 -0.710938 0.554688 0 0 0
-0.382812 -0.804688 0.554688 0 0 0
0.320312 0.476562 -0.164062 0 0 0
-0.117188 0.882812 -0.789062 0 0 0
0.023438 0.867188 -0.382812 0 0 0
-0.554688 -0.429688 0.148438 0 0 0
-0.742188 0.398438 -0.976562 0 0 0
0.914062 0.367188 0.742188 0 0 0
0.351562 0.648438 0.164062 0 0 0
0.773438 0.117188 -0.773438 0 0 0
-0.789062 0.257812 -0.460938 0 0 0
0.851562 0.648438 -0.695312 0 0 0
-0.148438 -0.070312 -0.460938 0 0 0
-0.070312 0.023438 -0.382812 0 0 0
-0.742188 -0.648438 0.898438 0 0 0
-0.414062 -0.335938 -0.835938 0 0 0
-0.007812 -0.429688 -0.585938 0 0 0
0.351562 0.554688 -0.492188 0 0 0
0.304688 -0.882812 0.523438 0 0 0
0.679688 0.367188 -0.835938 0 0 0
-0.023438 0.539062 -0.789062 0 0 0
1.039062 -0.960938 -0.804688 0 0 0
1.039062 -0.757812 0.195312 0 0 0
0.867188 0.367188 -0.460938 0 0 0
0.726562 0.273438 -0.914062 0 0 0
0.148438 -0.382812 0.476562 0 0 0
0.429688 0.679688 0.945312 0 0 0
0.929688 -0.632812 0.742188 0 0 0
0.273438 -0.507812 -0.117188 0 0 0
0.726562 0.007812 0.382812 0 0 0
0.289062 0.382812 0.851562 0 0 0
0.429688 -0.429688 -0.429688 0 0 0
0.679688 0.851562 -0.398438 0 0 0
-0.617188 0.726562 0.742188 0 0 0
-0.039062 0.835938 0.382812 0 0 0
-0.070312 -0.148438 -0.398438 0 0 0
-0.007812 -0.226562 0.304688 0 0 0
0.570312 0.429688 -0.335938 0 0 0
0.507812 0.648438 -0.695312 0 0 0
1.039062 -0.632812 0.148438 0 0 0
-0.664062 -0.804688 -0.617188 0 0 0
0.679688 -0.757812 0.164062 0 0 0
-0.414062 0.960938 -0.507812 0 0 0
0.867188 0.023438 -0.992188 0 0 0
-0.414062 -0.367188 0.851562 0 0 0
-0.414062 -0.742188 -0.445312 0 0 0
-0.773438 0.757812 -0.460938 0 0 0
-0.007812 0.039062 0.742188 0 0 0
0.742188 -0.507812 -0.773438 0 0 0
-0.007812 -0.429688 0.289062 0 0 0
-0.023438 0.757812 -0.742188 0 0 0
0.023438 0.726562 -0.398438 0 0 0
0.351562 0.054688 -0.226562 0 0 0
0.882812 -0.335938 0.382812 0 0 0
-0.554688 -0.632812 -0.585938 0 0 0
0.039062 0.335938 -0.570312 0 0 0
0.617188 0.695312 -0.773438 0 0 0
-0.148438 0.382812 -0.710938 0 0 0
0.226562 0.117188 -0.539062 0 0 0
0.648438 0.382812 0.914062 0 0 0
-0.210938 0.289062 -0.554688 0 0 0
0.351562 0.960938 -0.492188 0 0 0
-0.132812 0.398438 -0.257812 0 0 0
-0.210938 0.460938 0.164062 0 0 0
0.960938 0.335938 0.914062 0 0 0
0.929688 0.007812 0.367188 0 0 0
0.210938 -0.132812 -0.804688 0 0 0
1.039062 0.835938 -0.789062 0 0 0
0.617188 0.757812 -0.023438 0 0 0
0.039062 -0.960938 0.382812 0 0 0
0.304688 -0.601562 -0.835938 0 0 0
0.679688 -0.039062 -0.023438 0 0 0
0.054688 0.335938 -0.007812 0 0 0
0.835938 0.289062 -0.523438 0 0 0
-0.742188 0.367188 0.742188 0 0 0
-0.382812 -0.382812 -0.289062 0 0 0
-0.976562 -0.648438 0.742188 0 0 0
0.304688 -0.164062 0.710938 0 0 0
-0.070312 0.070312 -0.804688 0 0 0
0.820312 0.132812 -0.585938 0 0 0
-0.007812 0.257812 -0.382812 0 0 0
0.835938 0.289062 -0.804688 0 0 0
0.867188 0.242188 -0.007812 0 0 0
-0.976562 0.242188 -0.914062 0 0 0
0.320312 -0.960938 -0.914062 0 0 0
0.570312 0.539062 -0.179688 0 0 0
0.429688 0.742188 -0.804688 0 0 0
-0.773438 -0.429688 -0.914062 0 0 0
0.820312 -0.429688 0.023438 0 0 0
0.210938 -0.382812 -0.148438 0 0 0
-0.210938 -0.710938 0.554688 0 0 0
-0.851562 -0.507812 1.007812 0 0 0
0.789062 0.132812 0.742188 0 0 0
0.882812 0.273438 -0.789062 0 0 0
0.367188 0.273438 -0.789062 0 0 0
0.820312 -0.476562 -0.804688 0 0 0
0.570312 0.960938 -0.335938 0 0 0
0.601562 -0.632812 -0.992188 0 0 0
0.773438 -0.429688 -0.570312 0 0 0
-0.976562 0.273438 -0.835938 0 0 0
0.914062 0.726562 -0.820312 0 0 0
0.523438 -0.429688 -0.695312 0 0 0
0.039062 0.414062 -0.617188 0 0 0
-0.242188 0.992188 0.351562 0 0 0
0.835938 0.351562 -0.273438 0 0 0
-0.992188 -0.507812 -0.257812 0 0 0
-0.210938 0.882812 -0.335938 0 0 0
0.882812 -0.429688 -0.023438 0 0 0
0.726562 -0.960938 0.476562 0 0 0
-0.757812 -0.445312 -0.804688 0 0 0
-0.023438 -0.789062 -0.335938 0 0 0
0.523438 0.726562 -0.960938 0 0 0
0.226562 0.679688 -0.585938 0 0 0
0.351562 0.023438 0.742188 0 0 0
0.851562 -0.710938 0.710938 0 0 0
0.914062 -0.867188 -0.773438 0 0 0
0.929688 -0.429688 -0.007812 0 0 0
0.023438 -0.554688 0.023438 0 0 0
0.914062 0.023438 0.257812 0 0 0
0.085938 0.929688 -0.882812 0 0 0
0.898438 0.726562 1.039062 0 0 0
-0.070312 0.273438 -0.460938 0 0 0
-0.210938 -0.710938 -0.460938 0 0 0
-0.164062 0.460938 -0.601562 0 0 0
-0.914062 -0.148438 -0.773438 0 0 0
-0.945312 -0.804688 -0.882812 0 0 0
-0.664062 -0.382812 0.164062 0 0 0
0.914062 0.179688 -0.335938 0 0 0
0.914062 0.117188 -0.085938 0 0 0
0.820312 0.117188 -0.914062 0 0 0
-0.617188 0.898438 -0.507812 0 0 0
-0.414062 -0.382812 -0.117188 0 0 0
0.570312 -0.945312 -0.382812 0 0 0
0.929688 -0.601562 -0.492188 0 0 0
0.210938 0.414062 -0.773438 0 0 0
-0.414062 0.414062 1.039062 0 0 0
0.882812 -0.382812 -0.914062 0 0 0
0.210938 0.414062 -0.460938 0 0 0
0.367188 0.132812 0.804688 0 0 0
0.164062 -0.382812 -0.789062 0 0 0
0.351562 0.960938 -0.289062 0 0 0
-0.726562 -0.570312 -0.570312 0 0 0
-0.117188 0.945312 -0.460938 0 0 0
0.367188 -0.148438 -0.460938 0 0 0
0.429688 0.289062 -0.789062 0 0 0
0.914062 -0.382812 -0.914062 0 0 0
0.085938 -0.960938 -0.382812 0 0 0
0.320312 -0.523438 -0.257812 0 0 0
0.882812 -0.523438 -0.335938 0 0 0
-0.960938 0.960938 0.742188 0 0 0
0.414062 -0.132812 -0.695312 0 0 0
0.820312 -0.507812 0.679688 0 0 0
0.804688 0.382812 0.039062 0 0 0
-0.007812 0.117188 0.382812 0 0 0
-0.382812 0.476562 0.523438 0 0 0
-0.210938 0.585938 0.914062 0 0 0
-0.726562 -0.507812 -0.539062 0 0 0
0.929688 -0.492188 -0.023438 0 0 0
-0.601562 0.273438 0.914062 0 0 0
0.351562 0.117188 -0.210938 0 0 0
-0.460938 -0.132812 1.039062 0 0 0
0.914062 -0.429688 -0.117188 0 0 0
-0.789062 -0.429688 0.382812 0 0 0
0.851562 -0.054688 -0.992188 0 0 0
0.914062 -0.429688 -0.601562 0 0 0
0.382812 0.117188 -0.554688 0 0 0
0.898438 -0.507812 -0.820312 0 0 0
0.914062 0.242188 0.148438 0 0 0
-0.414062 0.726562 -0.320312 0 0 0
-0.335938 0.210938 0.351562 0 0 0
-0.617188 0.289062 -0.460938 0 0 0
-0.007812 -0.335938 -0.695312 0 0 0
0.679688 0.460938 -0.007812 0 0 0
0.679688 0.960938 -0.570312 0 0 0
0.882812 0.429688 0.195312 0 0 0
-0.867188 0.023438 0.476562 0 0 0
0.429688 -0.585938 -0.460938 0 0 0
-0.945312 0.257812 -0.570312 0 0 0
0.210938 0.367188 -0.257812 0 0 0
0.367188 -0.382812 0.085938 0 0 0
0.585938 0.398438 1.007812 0 0 0
-0.117188 -0.960938 -0.007812 0 0 0
0.445312 -0.148438 0.976562 0 0 0
0.304688 -0.507812 -0.335938 0 0 0
0.492188 -0.804688 -0.085938 0 0 0
-0.023438 0.179688 0.523438 0 0 0
-0.617188 0.992188 -0.085938 0 0 0
-0.007812 0.210938 0.867188 0 0 0
-0.070312 0.570312 -0.210938 0 0 0
-0.414062 -0.960938 0.867188 0 0 0
-0.007812 -0.632812 0.867188 0 0 0
-0.726562 -0.804688 -0.335938 0 0 0
0.820312 -0.882812 -0.507812 0 0 0
-0.023438 0.289062 -0.554688 0 0 0
-0.257812 0.476562 0.679688 0 0 0
-0.070312 -0.867188 -0.570312 0 0 0
0.351562 -0.601562 0.195312 0 0 0
-0.023438 0.398438 0.023438 0 0 0
-0.070312 0.820312 -0.476562 0 0 0
0.929688 0.867188 -0.789062 0 0 0
0.085938 0.695312 -0.398438 0 0 0
0.851562 0.117188 0.601562 0 0 0
-0.257812 0.351562 -0.382812 0 0 0
0.367188 0.414062 -0.867188 0 0 0
0.304688 0.835938 -0.679688 0 0 0
0.929688 0.648438 -0.335938 0 0 0
-0.195312 0.695312 1.007812 0 0 0
0.039062 -0.007812 -0.554688 0 0 0
0.914062 -0.382812 0.523438 0 0 0
0.492188 -0.335938 -0.382812 0 0 0
0.648438 -0.507812 0.132812 0 0 0
0.492188 0.742188 0.226562 0 0 0
-0.851562 -0.507812 0.945312 0 0 0
0.617188 0.867188 -0.835938 0 0 0
0.835938 -0.382812 -0.335938 0 0 0
-0.773438 0.835938 0.742188 0 0 0
0.679688 0.648438 -0.335938 0 0 0
-0.976562 0.507812 -0.601562 0 0 0
0.898438 -0.804688 -0.164062 0 0 0
-0.179688 -0.742188 0.070312 0 0 0
-0.007812 -0.585938 -0.976562 0 0 0
0.679688 -0.632812 0.851562 0 0 0
0.273438 -0.148438 -0.304688 0 0 0
0.179688 -0.976562 0.289062 0 0 0
0.882812 0.429688 -0.585938 0 0 0
-0.757812 -0.367188 -0.023438 0 0 0
0.523438 0.414062 -0.164062 0 0 0
-0.507812 0.398438 -0.460938 0 0 0
0.820312 0.851562 -0.398438 0 0 0
0.882812 -0.507812 -0.382812 0 0 0
0.039062 0.460938 0.914062 0 0 0
0.039062 -0.710938 0.523438 0 0 0
0.023438 -0.632812 -0.335938 0 0 0
0.726562 0.992188 -0.257812 0 0 0
-0.664062 0.179688 0.757812 0 0 0
0.523438 0.757812 0.085938 0 0 0
0.382812 0.632812 1.039062 0 0 0
0.210938 0.132812 -0.335938 0 0 0
0.804688 0.289062 -0.929688 0 0 0
-0.257812 -0.429688 -0.195312 0 0 0
0.117188 0.992188 0.914062 0 0 0
0.929688 0.070312 -0.804688 0 0 0
0.320312 -0.523438 -0.273438 0 0 0
-0.617188 -0.070312 0.523438 0 0 0
0.726562 0.242188 0.914062 0 0 0
-0.007812 0.210938 0.945312 0 0 0
0.914062 0.210938 -0.320312 0 0 0
-0.960938 -0.148438 0.273438 0 0 0
0.679688 0.757812 -0.382812 0 0 0
0.039062 0.585938 0.898438 0 0 0
0.570312 0.460938 -0.554688 0 0 0
0.929688 0.335938 -0.601562 0 0 0
-0.382812 0.851562 0.757812 0 0 0
-0.976562 0.648438 -0.835938 0 0 0
-0.070312 0.507812 -0.585938 0 0 0
0.851562 0.101562 -0.695312 0 0 0
0.601562 0.117188 -0.007812 0 0 0
-0.789062 0.023438 0.382812 0 0 0
0.914062 0.882812 -0.789062 0 0 0
3 0 1 2
3 3 4 5
3 6 7 8
3 9 10 11
3 12 13 14
3 15 16 17
3 18 19 20
3 21 22 23
3 24 25 26
3 27 28 29
3 30 31 32
3 33 34 35
3 36 37 38
3 39 40 41
3 42 43 44
3 45 46 47
3 48 49 50
3 51 52 53
3 54 55 56
3 57 58 59
3 60 61 62
3 63 64 65
3 66 67 68
3 69 70 71
3 72 73 74
3 75 76 77
3 78 79 80
3 81 82 83
3 84 85 86
3 87 88 89
3 90 91 92
3 93 94 95
3 96 97 98
3 99 100 101
3 102 103 104
3 105 106 107
3 108 109 110
3 111 112 113
3 114 115 116
3 117 118 119
3 120 121 122
3 123 124 125
3 126 127 128
3 129 130 131
3 132 133 134
3 135 136 137
3 138 139 140
3 141 142 143
3 144 145 146
3 147 148 149
3 150 151 152
3 153 154 155
3 156 157 158
3 159 160 161
3 162 163 164
3 165 166 167
3 168 169 170
3 171 172 173
3 174 175 176
3 177 178 179
3 180 181 182
3 183 184 185
3 186 187 188
3 189 190 191
3 192 193 194
3 195 196 197
3 198 199 200
3 201 202 203
3 204 205 206
3 207 208 209
3 210 211 212
3 213 214 215
3 216 217 218
3 219 220 221
3 222 223 224
3 225 226 227
3 228 229 230
3 231 232 233
3 234 235 236
3 237 238 239
3 240 241 242
3 243 244 245
3 246 247 248
3 249 250 251
3 252 253 254
3 255 256 257
3 258 259 260
3 261 262 263
3 264 265 266
3 267 268 269
3 270 271 272
3 273 274 275
3 276 277 278
3 279 280 281
3 282 283 284
3 285 286 287
3 288 289 290
3 291 292 293
3 294 295 296
3 297 298 299
3 300 301 302
3 303 304 305
3 306 307 308
3 309 310 311
3 312 313 314
3 315 316 317
3 318 319 320
3 321 322 323
3 324 325 326
3 327 328 329
3 330 331 332
3 333 334 335
3 336 337 338
3 339 340 341
3 342 343 344
3 345 346 347
3 348 349 350
3 351 352 353
3 354 355 356
3 357 358 359
3 360 361 362
3 363 364 365
3 366 367 368
3 369 370 371
3 372 373 374
3 375 376 377
3 378 379 380
3 381 382 383
3 384 385 386
3 387 388 389
3 390 391 392
3 393 394 395
3 396 397 398
3 399 400 401
3 402 403 404
3 405 406 407
3 408 409 410
3 411 412 413
3 414 415 416
3 417 418 419
3 420 421 422
3 423 424 425
3 426 427 428
3 429 430 431
3 432 433 434
3 435 436 437
3 438 439 440
3 441 442 443
3 444 445 446
3 447 448 449
3 450 451 452
3 453 454 455
3 456 457 458
3 459 460 461
3 462 463 464
3 465 466 467
3 468 469 470
3 471 472 473
3 474 475 476
3 477 478 479
3 480 481 482
3 483 484 485
3 486 487 488
3 489 490 491
3 492 493 494
3 495 496 497
3 498 499 500
3 501 502 503
3 504 505 506
3 507 508 509
3 510 511 512
3 513 514 515
3 516 517 518
3 519 520 521
3 522 523 524
3 525 526 527
3 528 529 530
3 531 532 533
3 534 535 536
3 537 538 539
3 540 541 542
3 543 544 545
3 546 547 548
3 549 550 551
3 552 553 554
3 555 556 557
3 558 559 560
3 561 562 563
3 564 565 566
3 567 568 569
3 570 571 572
3 573 574 575
3 576 577 578
3 579 580 581
3 582 583 584
3 585 586 587
3 588 589 590
3 591 592 593
3 594 595 596
