ply
format ascii 1.0
element vertex 18
property float x
property float y
property float z
property uchar red
property uchar green
property uchar blue
element face 6
property list uchar uint vertex_indices
end_header
-0.789062 0.570312 0.164062 0 0 0
-0.273438 0.101562 -0.570312 0 0 0
-0.742188 0.679688 -0.460938 0 0 0
0.929688 -0.507812 -0.117188 0 0 0
-0.414062 0.757812 0.039062 0 0 0
0.570312 0.242188 -0.976562 0 0 0
-0.414062 0.726562 0.523438 0 0 0
0.492188 -0.429688 0.101562 0 0 0
-0.867188 0.070312 -0.257812 0 0 0
-0.570312 -0.507812 0.023438 0 0 0
-0.617188 -0.007812 0.039062 0 0 0
0.820312 0.898438 0.523438 0 0 0
0.679688 0.757812 -0.460938 0 0 0
-0.007812 0.007812 -0.960938 0 0 0
0.492188 0.179688 0.023438 0 0 0
0.179688 0.960938 0.023438 0 0 0
0.914062 -0.632812 -0.992188 0 0 0
0.507812 0.945312 0.945312 0 0 0
3 0 1 2
3 3 4 5
3 6 7 8
3 9 10 11
3 12 13 14
3 15 16 17
