ply
format ascii 1.0
element vertex 18
property float x
property float y
property float z
property uchar red
property uchar green
property uchar blue
element face 6
property list uchar uint vertex_indices
end_header
0.617188 -0.492188 -0.085938 0 0 0
-0.414062 -0.054688 0.757812 0 0 0
-0.976562 0.757812 0.710938 0 0 0
0.679688 -0.226562 -0.554688 0 0 0
-0.414062 0.679688 -0.039062 0 0 0
-0.164062 0.679688 0.148438 0 0 0
-0.976562 0.992188 -0.273438 0 0 0
0.820312 0.757812 -0.398438 0 0 0
0.492188 -0.335938 0.554688 0 0 0
-0.414062 -0.507812 0.085938 0 0 0
-0.789062 0.742188 0.148438 0 0 0
0.820312 0.757812 -0.335938 0 0 0
0.851562 0.335938 -0.460938 0 0 0
-0.976562 -0.460938 0.601562 0 0 0
0.164062 -0.960938 -0.804688 0 0 0
-0.710938 0.414062 -0.601562 0 0 0
0.914062 -0.445312 0.132812 0 0 0
0.976562 0.914062 0.164062 0 0 0
3 0 1 2
3 3 4 5
3 6 7 8
3 9 10 11
3 12 13 14
3 15 16 17
