ply
format ascii 1.0
element vertex 12
property float x
property float y
property float z
property uchar red
property uchar green
property uchar blue
element face 4
property list uchar uint vertex_indices
end_header
-0.039062 0.851562 -0.023438 0 0 0
0.820312 0.929688 0.351562 0 0 0
0.773438 0.960938 -0.976562 0 0 0
0.085938 0.054688 0.742188 0 0 0
0.367188 0.007812 -0.554688 0 0 0
-0.539062 0.726562 -0.039062 0 0 0
-0.148438 -0.492188 0.273438 0 0 0
0.429688 0.757812 -0.398438 0 0 0
0.304688 -0.382812 0.398438 0 0 0
-0.039062 -0.804688 -0.007812 0 0 0
-0.789062 0.023438 0.382812 0 0 0
0.351562 0.648438 0.742188 0 0 0
3 0 1 2
3 3 4 5
3 6 7 8
3 9 10 11
