ply
format ascii 1.0
element vertex 15
property float x
property float y
property float z
property uchar red
property uchar green
property uchar blue
element face 5
property list uchar uint vertex_indices
end_header
-0.570312 0.132812 0.960938 0 0 0
-0.007812 -0.429688 -0.414062 0 0 0
0.070312 -0.523438 0.148438 0 0 0
-0.007812 -0.148438 0.164062 0 0 0
-0.554688 0.289062 -0.773438 0 0 0
0.867188 -0.507812 -0.632812 0 0 0
0.617188 0.289062 0.382812 0 0 0
-0.164062 -0.601562 -0.257812 0 0 0
-0.648438 -0.070312 0.148438 0 0 0
0.367188 0.648438 0.914062 0 0 0
-0.414062 0.742188 0.992188 0 0 0
0.039062 0.289062 0.601562 0 0 0
-0.601562 -0.164062 0.132812 0 0 0
0.164062 0.835938 0.976562 0 0 0
0.195312 -0.226562 -0.789062 0 0 0
3 0 1 2
3 3 4 5
3 6 7 8
3 9 10 11
3 12 13 14
