ply
format ascii 1.0
element vertex 15
property float x
property float y
property float z
property uchar red
property uchar green
property uchar blue
element face 5
property list uchar uint vertex_indices
end_header
-0.867188 -0.742188 -0.585938 0 0 0
-0.070312 -0.429688 0.757812 0 0 0
0.320312 -0.039062 -0.195312 0 0 0
0.523438 0.929688 0.242188 0 0 0
-0.179688 0.398438 0.742188 0 0 0
-0.664062 -0.507812 0.679688 0 0 0
-0.820312 0.335938 0.914062 0 0 0
-0.414062 -0.382812 -0.570312 0 0 0
1.039062 0.382812 -0.398438 0 0 0
-0.726562 0.054688 0.523438 0 0 0
-0.414062 0.976562 0.382812 0 0 0
0.867188 -0.132812 -0.914062 0 0 0
0.820312 -0.960938 -0.257812 0 0 0
0.523438 0.117188 -0.570312 0 0 0
0.570312 0.382812 0.289062 0 0 0
3 0 1 2
3 3 4 5
3 6 7 8
3 9 10 11
3 12 13 14
