ply
format ascii 1.0
element vertex 9
property float x
property float y
property float z
property uchar red
property uchar green
property uchar blue
element face 3
property list uchar uint vertex_indices
end_header
0.367188 0.898438 -0.789062 0 0 0
-0.273438 0.648438 -0.210938 0 0 0
0.867188 0.179688 -0.992188 0 0 0
-0.070312 -0.070312 0.601562 0 0 0
-0.070312 0.726562 -0.039062 0 0 0
-0.132812 0.007812 -0.867188 0 0 0
-0.335938 -0.320312 -0.882812 0 0 0
0.351562 0.023438 -0.492188 0 0 0
0.492188 0.648438 -0.882812 0 0 0
3 0 1 2
3 3 4 5
3 6 7 8
