ply
format ascii 1.0
element vertex 15
property float x
property float y
property float z
property uchar red
property uchar green
property uchar blue
element face 5
property list uchar uint vertex_indices
end_header
-0.460938 0.867188 -0.992188 0 0 0
0.882812 -0.429688 -0.085938 0 0 0
-0.148438 0.882812 0.242188 0 0 0
-0.039062 0.851562 -0.804688 0 0 0
0.429688 0.757812 -0.976562 0 0 0
-0.414062 -0.429688 -0.554688 0 0 0
-0.117188 0.554688 -0.554688 0 0 0
0.195312 0.273438 0.789062 0 0 0
-0.976562 0.726562 0.523438 0 0 0
0.570312 0.210938 -0.023438 0 0 0
0.789062 0.851562 0.132812 0 0 0
-0.601562 0.929688 -0.257812 0 0 0
0.679688 0.414062 -0.789062 0 0 0
-0.132812 0.398438 -0.289062 0 0 0
1.039062 -0.648438 -0.570312 0 0 0
3 0 1 2
3 3 4 5
3 6 7 8
3 9 10 11
3 12 13 14
