ply
format ascii 1.0
element vertex 9
property float x
property float y
property float z
property uchar red
property uchar green
property uchar blue
element face 3
property list uchar uint vertex_indices
end_header
0.851562 -0.195312 0.960938 0 0 0
-0.007812 -0.148438 0.742188 0 0 0
0.492188 0.835938 -0.460938 0 0 0
-0.101562 0.023438 0.601562 0 0 0
0.570312 0.726562 0.492188 0 0 0
0.820312 -0.476562 -0.804688 0 0 0
0.429688 -0.679688 0.335938 0 0 0
-0.039062 1.007812 0.914062 0 0 0
0.523438 -0.382812 -0.773438 0 0 0
3 0 1 2
3 3 4 5
3 6 7 8
