ply
format ascii 1.0
element vertex 12
property float x
property float y
property float z
property uchar red
property uchar green
property uchar blue
element face 4
property list uchar uint vertex_indices
end_header
0.851562 -0.742188 -0.117188 0 0 0
0.851562 0.757812 -0.773438 0 0 0
0.867188 -0.710938 0.742188 0 0 0
-0.335938 -0.460938 0.132812 0 0 0
0.320312 -0.039062 -0.789062 0 0 0
0.429688 0.273438 -0.460938 0 0 0
0.882812 -0.070312 -0.257812 0 0 0
0.773438 0.382812 0.382812 0 0 0
0.570312 0.648438 -0.992188 0 0 0
0.554688 0.617188 -0.929688 0 0 0
0.351562 0.835938 0.851562 0 0 0
0.820312 -0.429688 -0.398438 0 0 0
3 0 1 2
3 3 4 5
3 6 7 8
3 9 10 11
