ply
format ascii 1.0
element vertex 15
property float x
property float y
property float z
property uchar red
property uchar green
property uchar blue
element face 5
property list uchar uint vertex_indices
end_header
0.617188 -0.773438 -0.914062 0 0 0
0.195312 0.101562 -0.382812 0 0 0
0.523438 -0.304688 -0.210938 0 0 0
0.898438 -0.679688 0.820312 0 0 0
0.867188 0.617188 -0.554688 0 0 0
0.429688 0.117188 0.039062 0 0 0
-0.039062 -0.882812 0.382812 0 0 0
-0.007812 0.085938 0.789062 0 0 0
0.179688 0.726562 -0.398438 0 0 0
0.773438 0.570312 0.960938 0 0 0
-0.882812 -0.398438 0.523438 0 0 0
0.773438 -0.632812 0.632812 0 0 0
-0.195312 -0.960938 0.539062 0 0 0
0.210938 0.851562 0.757812 0 0 0
0.679688 0.273438 -0.914062 0 0 0
3 0 1 2
3 3 4 5
3 6 7 8
3 9 10 11
3 12 13 14
