ply
format ascii 1.0
element vertex 9
property float x
property float y
property float z
property uchar red
property uchar green
property uchar blue
element face 3
property list uchar uint vertex_indices
end_header
-0.773438 0.382812 -0.914062 0 0 0
0.367188 0.757812 0.960938 0 0 0
-0.210938 -0.632812 0.914062 0 0 0
0.851562 0.992188 -0.976562 0 0 0
0.867188 -0.898438 0.132812 0 0 0
0.523438 0.179688 0.382812 0 0 0
0.882812 -0.960938 0.710938 0 0 0
0.523438 0.476562 -0.210938 0 0 0
0.804688 -0.632812 0.757812 0 0 0
3 0 1 2
3 3 4 5
3 6 7 8
