ply
format ascii 1.0
element vertex 24
property float x
property float y
property float z
property uchar red
property uchar green
property uchar blue
element face 8
property list uchar uint vertex_indices
end_header
0.851562 0.007812 -0.210938 0 0 0
0.820312 0.367188 -0.554688 0 0 0
0.882812 0.726562 -0.492188 0 0 0
0.320312 0.054688 -0.882812 0 0 0
0.492188 0.054688 -0.148438 0 0 0
-0.179688 -0.523438 -0.554688 0 0 0
-0.273438 -0.195312 -0.992188 0 0 0
-0.789062 -0.492188 -0.007812 0 0 0
-0.664062 -0.507812 -0.976562 0 0 0
0.851562 0.742188 0.023438 0 0 0
-0.867188 -0.429688 0.257812 0 0 0
0.429688 0.367188 0.023438 0 0 0
0.679688 -0.695312 -0.460938 0 0 0
-0.617188 -0.585938 0.601562 0 0 0
0.148438 -0.226562 -0.460938 0 0 0
0.273438 -0.945312 -0.914062 0 0 0
0.851562 -0.742188 -0.335938 0 0 0
-0.601562 0.335938 -0.382812 0 0 0
-0.382812 0.867188 -0.992188 0 0 0
-0.570312 -0.335938 -0.914062 0 0 0
0.804688 -0.148438 0.132812 0 0 0
0.320312 -0.226562 -0.773438 0 0 0
-0.726562 -0.882812 0.132812 0 0 0
0.851562 0.351562 -0.554688 0 0 0
3 0 1 2
3 3 4 5
3 6 7 8
3 9 10 11
3 12 13 14
3 15 16 17
3 18 19 20
3 21 22 23
