ply
format ascii 1.0
element vertex 12
property float x
property float y
property float z
property uchar red
property uchar green
property uchar blue
element face 4
property list uchar uint vertex_indices
end_header
0.429688 0.648438 1.039062 0 0 0
-0.210938 -0.492188 1.039062 0 0 0
0.867188 0.242188 -0.757812 0 0 0
-0.867188 -0.335938 0.242188 0 0 0
0.804688 0.398438 -0.335938 0 0 0
0.164062 -0.117188 0.226562 0 0 0
-0.335938 -0.757812 0.023438 0 0 0
0.429688 -0.632812 -0.335938 0 0 0
0.882812 -0.507812 0.742188 0 0 0
0.882812 0.023438 0.742188 0 0 0
0.367188 0.289062 0.742188 0 0 0
-0.867188 0.648438 -0.992188 0 0 0
3 0 1 2
3 3 4 5
3 6 7 8
3 9 10 11
