ply
format ascii 1.0
element vertex 12
property float x
property float y
property float z
property uchar red
property uchar green
property uchar blue
element face 4
property list uchar uint vertex_indices
end_header
0.039062 0.679688 0.789062 0 0 0
0.851562 0.101562 0.570312 0 0 0
-0.007812 0.898438 -0.632812 0 0 0
0.429688 -0.710938 0.679688 0 0 0
0.570312 -0.335938 -0.398438 0 0 0
0.039062 -0.523438 -0.632812 0 0 0
0.179688 -0.226562 0.039062 0 0 0
-0.789062 0.882812 0.820312 0 0 0
0.882812 -0.164062 0.945312 0 0 0
0.742188 -0.132812 -0.179688 0 0 0
0.023438 0.414062 0.554688 0 0 0
-0.617188 0.648438 -0.695312 0 0 0
3 0 1 2
3 3 4 5
3 6 7 8
3 9 10 11
