ply
format ascii 1.0
element vertex 15
property float x
property float y
property float z
property uchar red
property uchar green
property uchar blue
element face 5
property list uchar uint vertex_indices
end_header
0.429688 -0.632812 0.148438 0 0 0
0.367188 0.757812 -0.710938 0 0 0
-0.351562 -0.898438 0.523438 0 0 0
-0.601562 -0.507812 -0.804688 0 0 0
-0.132812 0.679688 -0.460938 0 0 0
0.210938 0.648438 0.148438 0 0 0
-0.460938 0.335938 0.742188 0 0 0
-0.070312 0.679688 0.742188 0 0 0
1.039062 -0.335938 -0.882812 0 0 0
0.320312 0.960938 -0.007812 0 0 0
-0.976562 0.414062 -0.398438 0 0 0
0.054688 -0.742188 0.195312 0 0 0
0.070312 0.476562 -0.804688 0 0 0
0.492188 -0.851562 -0.710938 0 0 0
-0.226562 0.679688 0.929688 0 0 0
3 0 1 2
3 3 4 5
3 6 7 8
3 9 10 11
3 12 13 14
