ply
format ascii 1.0
element vertex 9
property float x
property float y
property float z
property uchar red
property uchar green
property uchar blue
element face 3
property list uchar uint vertex_indices
end_header
-0.179688 0.242188 0.351562 0 0 0
-0.585938 -0.992188 -0.820312 0 0 0
0.710938 -0.148438 -0.492188 0 0 0
0.179688 0.414062 0.523438 0 0 0
-0.335938 -0.820312 0.523438 0 0 0
0.867188 -0.132812 -0.492188 0 0 0
-0.601562 -0.023438 0.460938 0 0 0
-0.367188 -0.992188 0.351562 0 0 0
0.773438 -0.585938 0.789062 0 0 0
3 0 1 2
3 3 4 5
3 6 7 8
