ply
format ascii 1.0
element vertex 9
property float x
property float y
property float z
property uchar red
property uchar green
property uchar blue
element face 3
property list uchar uint vertex_indices
end_header
-0.648438 0.476562 0.976562 0 0 0
-0.132812 -0.085938 -0.585938 0 0 0
0.273438 0.726562 0.070312 0 0 0
-0.148438 -0.164062 0.460938 0 0 0
0.070312 0.851562 -0.648438 0 0 0
-0.648438 0.351562 -0.632812 0 0 0
-0.164062 -0.132812 0.085938 0 0 0
0.664062 -0.648438 0.007812 0 0 0
-0.726562 0.289062 -0.945312 0 0 0
3 0 1 2
3 3 4 5
3 6 7 8
