ply
format ascii 1.0
element vertex 12
property float x
property float y
property float z
property uchar red
property uchar green
property uchar blue
element face 4
property list uchar uint vertex_indices
end_header
0.085938 0.648438 -0.882812 0 0 0
-0.070312 0.085938 -0.539062 0 0 0
-0.132812 0.039062 -0.382812 0 0 0
-0.132812 -0.085938 0.726562 0 0 0
-0.539062 -0.539062 0.742188 0 0 0
-0.476562 -0.148438 -0.648438 0 0 0
-0.726562 -0.835938 -0.773438 0 0 0
0.601562 -0.148438 -0.835938 0 0 0
-0.742188 0.585938 0.085938 0 0 0
0.945312 0.804688 -0.132812 0 0 0
0.273438 0.945312 0.742188 0 0 0
-0.742188 0.695312 0.414062 0 0 0
3 0 1 2
3 3 4 5
3 6 7 8
3 9 10 11
