ply
format ascii 1.0
element vertex 21
property float x
property float y
property float z
property uchar red
property uchar green
property uchar blue
element face 7
property list uchar uint vertex_indices
end_header
-0.882812 -0.789062 0.695312 0 0 0
-0.179688 0.976562 0.257812 0 0 0
-0.992188 -0.132812 0.257812 0 0 0
0.945312 -0.179688 0.867188 0 0 0
0.851562 -0.070312 0.070312 0 0 0
-0.320312 0.882812 0.695312 0 0 0
0.757812 -0.789062 0.273438 0 0 0
-0.742188 -0.585938 -0.398438 0 0 0
-0.148438 0.429688 -0.398438 0 0 0
0.570312 0.101562 -0.210938 0 0 0
0.273438 -0.226562 0.492188 0 0 0
-0.617188 0.632812 -0.367188 0 0 0
-0.226562 -0.335938 0.289062 0 0 0
0.914062 0.242188 -0.773438 0 0 0
-0.742188 -0.335938 -0.179688 0 0 0
-0.945312 0.257812 0.304688 0 0 0
0.070312 -0.367188 0.851562 0 0 0
-0.476562 0.320312 -0.273438 0 0 0
0.492188 -0.570312 -0.445312 0 0 0
-0.273438 0.867188 -0.148438 0 0 0
0.945312 0.757812 0.742188 0 0 0
3 0 1 2
3 3 4 5
3 6 7 8
3 9 10 11
3 12 13 14
3 15 16 17
3 18 19 20
