ply
format ascii 1.0
element vertex 12
property float x
property float y
property float z
property uchar red
property uchar green
property uchar blue
element face 4
property list uchar uint vertex_indices
end_header
-0.242188 -0.273438 -0.242188 0 0 0
-0.648438 -0.335938 -0.289062 0 0 0
0.664062 0.273438 -0.226562 0 0 0
-0.226562 0.664062 0.867188 0 0 0
0.492188 0.867188 0.664062 0 0 0
0.414062 -0.148438 -0.882812 0 0 0
0.789062 -0.523438 0.289062 0 0 0
0.554688 -0.945312 0.632812 0 0 0
0.585938 -0.460938 0.632812 0 0 0
-0.476562 -0.148438 0.367188 0 0 0
0.523438 0.851562 0.710938 0 0 0
0.164062 0.367188 0.492188 0 0 0
3 0 1 2
3 3 4 5
3 6 7 8
3 9 10 11
