ply
format ascii 1.0
element vertex 12
property float x
property float y
property float z
property uchar red
property uchar green
property uchar blue
element face 4
property list uchar uint vertex_indices
end_header
-0.742188 0.648438 0.414062 0 0 0
0.835938 -0.992188 -0.742188 0 0 0
-0.367188 0.070312 -0.054688 0 0 0
0.664062 -0.460938 0.945312 0 0 0
-0.023438 0.664062 0.164062 0 0 0
-0.148438 -0.882812 0.054688 0 0 0
-0.164062 -0.460938 0.414062 0 0 0
0.820312 0.585938 -0.960938 0 0 0
0.507812 0.804688 -0.148438 0 0 0
-0.632812 -0.539062 -0.789062 0 0 0
-0.210938 0.742188 -0.460938 0 0 0
-0.226562 0.820312 0.820312 0 0 0
3 0 1 2
3 3 4 5
3 6 7 8
3 9 10 11
