ply
format ascii 1.0
element vertex 9
property float x
property float y
property float z
property uchar red
property uchar green
property uchar blue
element face 3
property list uchar uint vertex_indices
end_header
0.054688 0.351562 0.414062 0 0 0
0.414062 0.835938 0.882812 0 0 0
0.414062 0.742188 0.742188 0 0 0
-0.648438 -0.898438 -0.070312 0 0 0
0.085938 -0.273438 0.648438 0 0 0
0.789062 0.570312 -0.132812 0 0 0
0.289062 -0.726562 0.351562 0 0 0
-0.070312 -0.585938 0.523438 0 0 0
-0.132812 0.742188 -0.085938 0 0 0
3 0 1 2
3 3 4 5
3 6 7 8
