ply
format ascii 1.0
element vertex 9
property float x
property float y
property float z
property uchar red
property uchar green
property uchar blue
element face 3
property list uchar uint vertex_indices
end_header
0.320312 -0.367188 -0.617188 0 0 0
-0.726562 -0.460938 0.414062 0 0 0
-0.835938 0.867188 0.632812 0 0 0
0.945312 -0.882812 -0.539062 0 0 0
0.945312 0.632812 -0.554688 0 0 0
0.492188 0.382812 0.351562 0 0 0
0.867188 -0.632812 0.289062 0 0 0
-0.039062 0.492188 0.804688 0 0 0
-0.726562 0.585938 0.273438 0 0 0
3 0 1 2
3 3 4 5
3 6 7 8
