ply
format ascii 1.0
element vertex 9
property float x
property float y
property float z
property uchar red
property uchar green
property uchar blue
element face 3
property list uchar uint vertex_indices
end_header
-0.789062 -0.273438 -0.476562 0 0 0
0.820312 -0.273438 0.882812 0 0 0
-0.742188 -0.226562 0.289062 0 0 0
0.414062 -0.398438 0.414062 0 0 0
-0.632812 0.742188 0.289062 0 0 0
0.945312 0.742188 -0.820312 0 0 0
-0.460938 0.601562 0.851562 0 0 0
-0.320312 -0.632812 0.632812 0 0 0
-0.085938 0.632812 0.789062 0 0 0
3 0 1 2
3 3 4 5
3 6 7 8
