ply
format ascii 1.0
element vertex 12
property float x
property float y
property float z
property uchar red
property uchar green
property uchar blue
element face 4
property list uchar uint vertex_indices
end_header
-0.492188 -0.726562 -0.492188 0 0 0
0.820312 0.351562 0.945312 0 0 0
0.054688 0.507812 -0.945312 0 0 0
-0.882812 0.789062 -0.960938 0 0 0
-0.179688 0.976562 -0.460938 0 0 0
0.710938 0.085938 0.945312 0 0 0
-0.476562 0.351562 -0.554688 0 0 0
-0.460938 0.351562 0.367188 0 0 0
-0.164062 -0.164062 -0.632812 0 0 0
0.835938 -0.070312 -0.257812 0 0 0
0.367188 0.632812 -0.976562 0 0 0
-0.476562 0.007812 0.742188 0 0 0
3 0 1 2
3 3 4 5
3 6 7 8
3 9 10 11
