ply
format ascii 1.0
element vertex 15
property float x
property float y
property float z
property uchar red
property uchar green
property uchar blue
element face 5
property list uchar uint vertex_indices
end_header
0.664062 0.664062 -0.992188 0 0 0
0.085938 0.960938 0.914062 0 0 0
0.882812 -0.226562 -0.476562 0 0 0
0.085938 0.273438 0.351562 0 0 0
0.867188 -0.664062 -0.882812 0 0 0
0.742188 -0.476562 -0.164062 0 0 0
-0.742188 0.632812 -0.132812 0 0 0
-0.554688 -0.273438 -0.460938 0 0 0
-0.257812 -0.070312 0.601562 0 0 0
-0.476562 0.710938 -0.179688 0 0 0
0.976562 -0.835938 0.664062 0 0 0
-0.164062 -0.257812 -0.773438 0 0 0
0.085938 0.945312 -0.367188 0 0 0
-0.992188 1.007812 -0.257812 0 0 0
0.460938 -0.492188 -0.742188 0 0 0
3 0 1 2
3 3 4 5
3 6 7 8
3 9 10 11
3 12 13 14
