ply
format ascii 1.0
element vertex 18
property float x
property float y
property float z
property uchar red
property uchar green
property uchar blue
element face 6
property list uchar uint vertex_indices
end_header
-0.164062 -0.507812 -0.273438 0 0 0
0.632812 0.726562 0.210938 0 0 0
-0.164062 0.289062 0.710938 0 0 0
-0.179688 -0.554688 0.710938 0 0 0
0.617188 0.070312 0.742188 0 0 0
-0.945312 0.054688 0.742188 0 0 0
0.226562 -0.148438 0.523438 0 0 0
0.523438 -0.617188 0.726562 0 0 0
0.585938 -0.242188 0.289062 0 0 0
-0.273438 0.289062 0.664062 0 0 0
-0.632812 -0.242188 0.492188 0 0 0
-0.039062 -0.835938 -0.726562 0 0 0
0.289062 -0.945312 0.070312 0 0 0
-0.273438 0.742188 0.867188 0 0 0
0.726562 0.492188 0.867188 0 0 0
-0.835938 0.742188 -0.476562 0 0 0
-0.632812 0.648438 -0.617188 0 0 0
0.820312 0.273438 0.867188 0 0 0
3 0 1 2
3 3 4 5
3 6 7 8
3 9 10 11
3 12 13 14
3 15 16 17
