ply
format ascii 1.0
element vertex 9
property float x
property float y
property float z
property uchar red
property uchar green
property uchar blue
element face 3
property list uchar uint vertex_indices
end_header
0.320312 0.507812 0.492188 0 0 0
-0.039062 0.632812 0.867188 0 0 0
-0.789062 -0.976562 0.085938 0 0 0
0.039062 -0.367188 -0.898438 0 0 0
-0.164062 -0.632812 -0.773438 0 0 0
-0.210938 -0.835938 0.664062 0 0 0
0.054688 -0.679688 -0.367188 0 0 0
-0.367188 0.492188 -0.210938 0 0 0
0.492188 0.273438 -0.257812 0 0 0
3 0 1 2
3 3 4 5
3 6 7 8
