ply
format ascii 1.0
element vertex 12
property float x
property float y
property float z
property uchar red
property uchar green
property uchar blue
element face 4
property list uchar uint vertex_indices
end_header
-0.726562 0.789062 0.664062 0 0 0
-0.632812 0.710938 0.664062 0 0 0
0.648438 0.804688 -0.023438 0 0 0
-0.476562 0.632812 -0.367188 0 0 0
-0.164062 0.351562 0.085938 0 0 0
0.070312 -0.617188 -0.523438 0 0 0
0.945312 0.414062 0.710938 0 0 0
0.632812 0.382812 0.070312 0 0 0
0.742188 0.226562 0.976562 0 0 0
0.710938 -0.210938 0.664062 0 0 0
-0.460938 0.632812 0.601562 0 0 0
0.851562 -0.164062 -0.164062 0 0 0
3 0 1 2
3 3 4 5
3 6 7 8
3 9 10 11
