ply
format ascii 1.0
element vertex 12
property float x
property float y
property float z
property uchar red
property uchar green
property uchar blue
element face 4
property list uchar uint vertex_indices
end_header
-0.445312 -0.132812 -0.460938 0 0 0
0.773438 0.085938 -0.632812 0 0 0
0.632812 0.351562 0.851562 0 0 0
-0.726562 -0.617188 -0.070312 0 0 0
0.492188 0.257812 -0.554688 0 0 0
-0.367188 0.742188 0.351562 0 0 0
-0.992188 -0.992188 -0.226562 0 0 0
0.351562 0.242188 -0.335938 0 0 0
0.945312 -0.132812 0.742188 0 0 0
0.742188 0.914062 -0.132812 0 0 0
0.382812 0.867188 -0.117188 0 0 0
0.976562 -0.070312 -0.289062 0 0 0
3 0 1 2
3 3 4 5
3 6 7 8
3 9 10 11
