ply
format ascii 1.0
element vertex 9
property float x
property float y
property float z
property uchar red
property uchar green
property uchar blue
element face 3
property list uchar uint vertex_indices
end_header
-0.585938 0.710938 0.085938 0 0 0
0.601562 0.414062 -0.226562 0 0 0
-0.070312 0.460938 0.539062 0 0 0
-0.789062 0.945312 0.382812 0 0 0
-0.164062 -0.820312 -0.492188 0 0 0
-0.179688 0.414062 -0.085938 0 0 0
0.945312 0.382812 0.960938 0 0 0
0.882812 -0.226562 0.351562 0 0 0
0.523438 0.492188 0.601562 0 0 0
3 0 1 2
3 3 4 5
3 6 7 8
