ply
format ascii 1.0
element vertex 12
property float x
property float y
property float z
property uchar red
property uchar green
property uchar blue
element face 4
property list uchar uint vertex_indices
end_header
0.664062 0.414062 -0.257812 0 0 0
0.632812 0.632812 0.070312 0 0 0
0.445312 0.273438 0.070312 0 0 0
0.585938 -0.789062 -0.210938 0 0 0
-0.554688 -0.085938 0.414062 0 0 0
-0.445312 -0.164062 0.085938 0 0 0
0.414062 -0.210938 0.351562 0 0 0
0.570312 -0.523438 -0.773438 0 0 0
-0.085938 -0.164062 -0.789062 0 0 0
-0.539062 0.085938 0.867188 0 0 0
-0.820312 -0.039062 0.523438 0 0 0
0.710938 0.742188 -0.492188 0 0 0
3 0 1 2
3 3 4 5
3 6 7 8
3 9 10 11
