ply
format ascii 1.0
element vertex 15
property float x
property float y
property float z
property uchar red
property uchar green
property uchar blue
element face 5
property list uchar uint vertex_indices
end_header
0.742188 0.867188 0.695312 0 0 0
0.085938 -0.164062 -0.835938 0 0 0
-0.835938 -0.835938 0.804688 0 0 0
-0.179688 -0.367188 -0.929688 0 0 0
-0.289062 0.867188 0.648438 0 0 0
0.789062 -0.179688 0.085938 0 0 0
0.945312 0.242188 -0.367188 0 0 0
0.695312 -0.179688 0.632812 0 0 0
-0.070312 0.414062 0.414062 0 0 0
-0.882812 0.789062 0.320312 0 0 0
-0.476562 -0.179688 0.351562 0 0 0
-0.882812 0.085938 0.570312 0 0 0
0.867188 -0.632812 -0.710938 0 0 0
0.804688 0.070312 -0.945312 0 0 0
0.664062 0.632812 0.585938 0 0 0
3 0 1 2
3 3 4 5
3 6 7 8
3 9 10 11
3 12 13 14
