ply
format ascii 1.0
element vertex 18
property float x
property float y
property float z
property uchar red
property uchar green
property uchar blue
element face 6
property list uchar uint vertex_indices
end_header
-0.726562 -0.164062 0.070312 0 0 0
-0.132812 0.773438 0.742188 0 0 0
-0.632812 -0.585938 0.070312 0 0 0
-0.023438 -0.335938 -0.164062 0 0 0
0.085938 -0.085938 -0.726562 0 0 0
0.757812 0.632812 -0.070312 0 0 0
0.632812 -0.789062 -0.523438 0 0 0
0.632812 -0.976562 -0.632812 0 0 0
0.164062 0.632812 -0.554688 0 0 0
0.742188 0.414062 0.851562 0 0 0
0.414062 -0.039062 -0.632812 0 0 0
0.257812 -0.367188 0.273438 0 0 0
-0.617188 -0.164062 0.835938 0 0 0
0.632812 0.289062 0.570312 0 0 0
-0.242188 -0.367188 0.773438 0 0 0
-0.523438 0.117188 -0.945312 0 0 0
-0.023438 -0.179688 -0.617188 0 0 0
0.742188 -0.492188 -0.289062 0 0 0
3 0 1 2
3 3 4 5
3 6 7 8
3 9 10 11
3 12 13 14
3 15 16 17
