ply
format ascii 1.0
element vertex 15
property float x
property float y
property float z
property uchar red
property uchar green
property uchar blue
element face 5
property list uchar uint vertex_indices
end_header
0.632812 0.585938 0.351562 0 0 0
-0.179688 0.960938 0.945312 0 0 0
0.804688 -0.632812 -0.539062 0 0 0
0.976562 0.085938 -0.132812 0 0 0
-0.070312 0.351562 -0.054688 0 0 0
0.882812 0.382812 0.414062 0 0 0
-0.226562 0.039062 0.257812 0 0 0
0.242188 0.242188 -0.226562 0 0 0
-0.085938 -0.742188 -0.992188 0 0 0
-0.992188 0.070312 0.414062 0 0 0
0.710938 -0.085938 -0.476562 0 0 0
-0.226562 0.257812 -0.492188 0 0 0
-0.992188 0.085938 -0.632812 0 0 0
-0.539062 0.820312 -0.664062 0 0 0
0.273438 0.945312 -0.335938 0 0 0
3 0 1 2
3 3 4 5
3 6 7 8
3 9 10 11
3 12 13 14
