ply
format ascii 1.0
element vertex 18
property float x
property float y
property float z
property uchar red
property uchar green
property uchar blue
element face 6
property list uchar uint vertex_indices
end_header
-0.367188 0.820312 -0.132812 0 0 0
-0.382812 0.726562 0.710938 0 0 0
-0.820312 0.945312 -0.070312 0 0 0
-0.507812 -0.179688 -0.617188 0 0 0
0.601562 -0.273438 0.867188 0 0 0
-0.398438 0.632812 -0.554688 0 0 0
0.492188 -0.492188 0.085938 0 0 0
-0.085938 -0.539062 -0.898438 0 0 0
0.867188 0.273438 0.273438 0 0 0
-0.992188 0.242188 0.070312 0 0 0
-0.179688 0.414062 0.914062 0 0 0
-0.742188 0.867188 0.914062 0 0 0
0.257812 -0.492188 0.945312 0 0 0
-0.257812 0.882812 0.648438 0 0 0
0.289062 -0.039062 -0.085938 0 0 0
-0.132812 -0.945312 0.273438 0 0 0
0.851562 -0.492188 -0.492188 0 0 0
0.570312 0.945312 -0.070312 0 0 0
3 0 1 2
3 3 4 5
3 6 7 8
3 9 10 11
3 12 13 14
3 15 16 17
