ply
format ascii 1.0
element vertex 15
property float x
property float y
property float z
property uchar red
property uchar green
property uchar blue
element face 5
property list uchar uint vertex_indices
end_header
0.070312 0.632812 -0.164062 0 0 0
0.351562 0.867188 0.007812 0 0 0
-0.554688 -0.335938 0.976562 0 0 0
0.507812 -0.273438 0.585938 0 0 0
0.585938 0.742188 -0.945312 0 0 0
-0.085938 0.726562 0.289062 0 0 0
-0.039062 0.804688 0.945312 0 0 0
0.367188 0.007812 -0.023438 0 0 0
-0.023438 0.085938 -0.226562 0 0 0
-0.164062 0.242188 -0.148438 0 0 0
-0.773438 -0.554688 -0.132812 0 0 0
-0.242188 0.945312 0.617188 0 0 0
0.085938 0.101562 -0.164062 0 0 0
0.414062 -0.210938 -0.617188 0 0 0
-0.320312 0.882812 0.523438 0 0 0
3 0 1 2
3 3 4 5
3 6 7 8
3 9 10 11
3 12 13 14
