ply
format ascii 1.0
element vertex 9
property float x
property float y
property float z
property uchar red
property uchar green
property uchar blue
element face 3
property list uchar uint vertex_indices
end_header
0.601562 -0.726562 0.835938 0 0 0
-0.992188 -0.992188 1.007812 0 0 0
0.742188 -0.976562 0.851562 0 0 0
-0.273438 0.867188 0.414062 0 0 0
-0.335938 0.523438 0.257812 0 0 0
-0.835938 0.070312 0.414062 0 0 0
-0.242188 0.289062 0.664062 0 0 0
0.054688 -0.492188 -0.164062 0 0 0
0.148438 0.757812 -0.273438 0 0 0
3 0 1 2
3 3 4 5
3 6 7 8
