ply
format ascii 1.0
element vertex 15
property float x
property float y
property float z
property uchar red
property uchar green
property uchar blue
element face 5
property list uchar uint vertex_indices
end_header
-0.273438 -0.445312 0.632812 0 0 0
0.632812 0.632812 -0.164062 0 0 0
-0.070312 0.351562 -0.492188 0 0 0
0.226562 -0.617188 0.695312 0 0 0
0.945312 0.632812 -0.210938 0 0 0
-0.085938 0.085938 0.351562 0 0 0
-0.554688 0.617188 -0.289062 0 0 0
0.289062 -0.898438 -0.335938 0 0 0
0.851562 0.242188 -0.945312 0 0 0
0.867188 -0.335938 -0.742188 0 0 0
0.257812 0.351562 -0.726562 0 0 0
0.226562 1.007812 -0.945312 0 0 0
0.164062 0.226562 0.945312 0 0 0
0.226562 0.273438 0.585938 0 0 0
0.085938 0.851562 0.601562 0 0 0
3 0 1 2
3 3 4 5
3 6 7 8
3 9 10 11
3 12 13 14
