ply
format ascii 1.0
element vertex 27
property float x
property float y
property float z
property uchar red
property uchar green
property uchar blue
element face 9
property list uchar uint vertex_indices
end_header
0.085938 0.867188 -0.070312 0 0 0
0.539062 -0.539062 -0.070312 0 0 0
-0.664062 -0.664062 0.726562 0 0 0
-0.085938 -0.132812 -0.164062 0 0 0
-0.648438 -0.945312 -0.210938 0 0 0
-0.945312 0.726562 -0.742188 0 0 0
0.476562 -0.679688 -0.148438 0 0 0
0.351562 -0.070312 -0.273438 0 0 0
-0.335938 -0.945312 0.804688 0 0 0
-0.273438 -0.554688 0.289062 0 0 0
0.976562 0.914062 -0.210938 0 0 0
0.085938 0.820312 0.945312 0 0 0
-0.226562 -0.179688 -0.070312 0 0 0
0.632812 0.867188 0.804688 0 0 0
0.414062 0.492188 0.914062 0 0 0
-0.664062 -0.023438 -0.664062 0 0 0
-0.664062 -0.835938 0.414062 0 0 0
0.742188 -0.148438 0.585938 0 0 0
0.476562 0.632812 0.804688 0 0 0
-0.976562 0.164062 -0.523438 0 0 0
0.976562 0.867188 -0.992188 0 0 0
-0.273438 0.289062 0.570312 0 0 0
0.867188 0.976562 0.351562 0 0 0
-0.445312 -0.523438 0.851562 0 0 0
-0.492188 -0.289062 0.585938 0 0 0
-0.367188 -0.132812 0.117188 0 0 0
-0.898438 -0.492188 0.867188 0 0 0
3 0 1 2
3 3 4 5
3 6 7 8
3 9 10 11
3 12 13 14
3 15 16 17
3 18 19 20
3 21 22 23
3 24 25 26
