ply
format ascii 1.0
element vertex 15
property float x
property float y
property float z
property uchar red
property uchar green
property uchar blue
element face 5
property list uchar uint vertex_indices
end_header
0.867188 -0.726562 -0.726562 0 0 0
0.257812 0.710938 0.414062 0 0 0
-0.570312 -0.070312 -0.617188 0 0 0
-0.148438 -0.320312 0.070312 0 0 0
0.601562 -0.554688 0.617188 0 0 0
0.289062 -0.148438 0.382812 0 0 0
0.914062 0.414062 -0.945312 0 0 0
0.257812 0.289062 0.632812 0 0 0
0.601562 0.867188 -0.226562 0 0 0
0.445312 0.414062 -0.632812 0 0 0
0.257812 0.085938 -0.992188 0 0 0
-0.132812 0.289062 0.867188 0 0 0
-0.992188 0.242188 0.882812 0 0 0
0.085938 -0.992188 0.851562 0 0 0
-0.726562 0.632812 0.085938 0 0 0
3 0 1 2
3 3 4 5
3 6 7 8
3 9 10 11
3 12 13 14
