ply
format ascii 1.0
element vertex 21
property float x
property float y
property float z
property uchar red
property uchar green
property uchar blue
element face 7
property list uchar uint vertex_indices
end_header
-0.585938 -0.382812 -0.023438 0 0 0
0.070312 0.070312 -0.539062 0 0 0
-0.210938 0.632812 -0.085938 0 0 0
-0.085938 -0.226562 0.070312 0 0 0
0.742188 0.867188 0.632812 0 0 0
0.789062 -0.945312 -0.835938 0 0 0
-0.210938 0.976562 -0.789062 0 0 0
0.273438 -0.179688 0.492188 0 0 0
-0.085938 0.070312 0.976562 0 0 0
-0.210938 1.007812 0.710938 0 0 0
-0.898438 -0.726562 0.351562 0 0 0
0.648438 -0.367188 0.976562 0 0 0
-0.226562 -0.023438 -0.742188 0 0 0
-0.617188 0.304688 -0.179688 0 0 0
-0.585938 -0.570312 -0.632812 0 0 0
-0.085938 0.632812 -0.648438 0 0 0
0.289062 0.273438 0.945312 0 0 0
-0.492188 -0.070312 -0.148438 0 0 0
-0.570312 0.492188 -0.726562 0 0 0
0.664062 -0.945312 0.085938 0 0 0
0.632812 0.945312 0.976562 0 0 0
3 0 1 2
3 3 4 5
3 6 7 8
3 9 10 11
3 12 13 14
3 15 16 17
3 18 19 20
