ply
format ascii 1.0
element vertex 9
property float x
property float y
property float z
property uchar red
property uchar green
property uchar blue
element face 3
property list uchar uint vertex_indices
end_header
-0.179688 -0.335938 -0.976562 0 0 0
0.742188 0.976562 0.179688 0 0 0
-0.132812 0.054688 -0.070312 0 0 0
-0.085938 0.007812 0.742188 0 0 0
-0.632812 -0.164062 0.664062 0 0 0
0.492188 -0.210938 -0.710938 0 0 0
-0.742188 0.085938 -0.460938 0 0 0
0.585938 0.742188 0.289062 0 0 0
-0.132812 0.070312 0.492188 0 0 0
3 0 1 2
3 3 4 5
3 6 7 8
