ply
format ascii 1.0
element vertex 9
property float x
property float y
property float z
property uchar red
property uchar green
property uchar blue
element face 3
property list uchar uint vertex_indices
end_header
0.789062 -0.820312 -0.070312 0 0 0
0.054688 -0.070312 0.382812 0 0 0
-0.179688 -0.835938 -0.070312 0 0 0
0.710938 0.289062 -0.789062 0 0 0
-0.992188 0.242188 -0.632812 0 0 0
0.492188 0.492188 -0.460938 0 0 0
-0.992188 -0.992188 0.273438 0 0 0
-0.367188 -0.070312 0.523438 0 0 0
-0.070312 -0.179688 -0.179688 0 0 0
3 0 1 2
3 3 4 5
3 6 7 8
