ply
format ascii 1.0
element vertex 24
property float x
property float y
property float z
property uchar red
property uchar green
property uchar blue
element face 8
property list uchar uint vertex_indices
end_header
0.992188 -0.070312 0.992188 0 0 0
0.070312 -0.007812 0.992188 0 0 0
0.007812 0.007812 0.382812 0 0 0
0.007812 0.007812 0.148438 0 0 0
0.195312 0.132812 0.039062 0 0 0
0.320312 0.320312 0.007812 0 0 0
-0.085938 -0.257812 0.007812 0 0 0
-0.070312 -0.023438 0.039062 0 0 0
-0.101562 -0.007812 -0.070312 0 0 0
0.070312 0.164062 -0.007812 0 0 0
-0.132812 0.664062 -0.273438 0 0 0
-0.007812 0.304688 -0.992188 0 0 0
0.210938 -0.273438 0.101562 0 0 0
0.023438 -0.070312 -0.039062 0 0 0
-0.070312 0.148438 0.664062 0 0 0
0.101562 -0.039062 -0.023438 0 0 0
-0.070312 0.992188 -0.007812 0 0 0
-0.179688 0.992188 0.210938 0 0 0
0.210938 0.007812 -0.007812 0 0 0
-0.007812 -0.007812 -0.945312 0 0 0
0.148438 -0.039062 0.960938 0 0 0
0.960938 -0.085938 0.007812 0 0 0
-0.070312 0.007812 -0.007812 0 0 0
0.085938 -0.007812 -0.945312 0 0 0
3 0 1 2
3 3 4 5
3 6 7 8
3 9 10 11
3 12 13 14
3 15 16 17
3 18 19 20
3 21 22 23
