ply
format ascii 1.0
element vertex 54
property float x
property float y
property float z
property uchar red
property uchar green
property uchar blue
element face 18
property list uchar uint vertex_indices
end_header
-0.992188 -0.039062 -0.054688 0 0 0
-0.992188 -0.039062 0.007812 0 0 0
-0.992188 0.039062 0.007812 0 0 0
-0.992188 -0.039062 0.007812 0 0 0
-0.992188 -0.039062 0.054688 0 0 0
-0.992188 0.039062 0.054688 0 0 0
-0.992188 -0.039062 0.007812 0 0 0
-0.992188 0.039062 0.054688 0 0 0
-0.992188 0.039062 0.007812 0 0 0
-0.992188 -0.039062 -0.101562 0 0 0
-0.992188 -0.039062 -0.054688 0 0 0
-0.992188 0.039062 -0.054688 0 0 0
-0.992188 -0.039062 -0.054688 0 0 0
-0.992188 0.039062 0.007812 0 0 0
-0.992188 0.039062 -0.054688 0 0 0
-0.992188 -0.039062 0.054688 0 0 0
-0.992188 -0.039062 0.101562 0 0 0
-0.992188 0.039062 0.101562 0 0 0
-0.992188 -0.039062 0.054688 0 0 0
-0.992188 0.039062 0.101562 0 0 0
-0.992188 0.039062 0.054688 0 0 0
-0.992188 -0.039062 -0.164062 0 0 0
-0.992188 -0.039062 -0.101562 0 0 0
-0.992188 0.039062 -0.101562 0 0 0
-0.992188 -0.039062 -0.101562 0 0 0
-0.992188 0.039062 -0.054688 0 0 0
-0.992188 0.039062 -0.101562 0 0 0
-0.992188 -0.039062 0.101562 0 0 0
-0.992188 -0.039062 0.164062 0 0 0
-0.992188 0.039062 0.164062 0 0 0
-0.992188 -0.039062 0.101562 0 0 0
-0.992188 0.039062 0.164062 0 0 0
-0.992188 0.039062 0.101562 0 0 0
-0.976562 -0.039062 -0.226562 0 0 0
-0.992188 -0.039062 -0.164062 0 0 0
-0.992188 0.039062 -0.164062 0 0 0
-0.992188 -0.039062 -0.164062 0 0 0
-0.992188 0.039062 -0.101562 0 0 0
-0.992188 0.039062 -0.164062 0 0 0
-0.992188 -0.039062 0.164062 0 0 0
-0.976562 -0.039062 0.226562 0 0 0
-0.976562 0.039062 0.226562 0 0 0
-0.992188 -0.039062 0.164062 0 0 0
-0.976562 0.039062 0.226562 0 0 0
-0.992188 0.039062 0.164062 0 0 0
-0.976562 -0.039062 -0.273438 0 0 0
-0.976562 -0.039062 -0.226562 0 0 0
-0.976562 0.039062 -0.226562 0 0 0
-0.976562 -0.039062 -0.226562 0 0 0
-0.992188 0.039062 -0.164062 0 0 0
-0.976562 0.039062 -0.226562 0 0 0
-0.976562 -0.039062 0.226562 0 0 0
-0.976562 -0.039062 0.273438 0 0 0
-0.976562 0.039062 0.273438 0 0 0
3 0 1 2
3 3 4 5
3 6 7 8
3 9 10 11
3 12 13 14
3 15 16 17
3 18 19 20
3 21 22 23
3 24 25 26
3 27 28 29
3 30 31 32
3 33 34 35
3 36 37 38
3 39 40 41
3 42 43 44
3 45 46 47
3 48 49 50
3 51 52 53
